crazyA.ufo
<glyph name="exclam" format="2">
  <advance width="400"/>
  <unicode hex="0021"/>
  <outline>
    <contour>
      <point x="200" y="140" type="curve" smooth="yes"/>
      <point x="161" y="140"/>
      <point x="130" y="109"/>
      <point x="130" y="70" type="curve" smooth="yes"/>
      <point x="130" y="31"/>
      <point x="161" y="0"/>
      <point x="200" y="0" type="curve" smooth="yes"/>
      <point x="239" y="0"/>
      <point x="270" y="31"/>
      <point x="270" y="70" type="curve" smooth="yes"/>
      <point x="270" y="109"/>
      <point x="239" y="140"/>
    </contour>
    <contour>
      <point x="100" y="750" type="line"/>
      <point x="300" y="750" type="line"/>
      <point x="250" y="194" type="line"/>
      <point x="150" y="195" type="line"/>
    </contour>
  </outline>
</glyph>
<glyph name="quotesingle" format="2">
  <advance width="179"/>
  <unicode hex="0027"/>
  <outline>
    <contour>
      <point x="0" y="466" type="curve"/>
      <point x="73" y="460" type="line"/>
      <point x="159" y="750" type="line"/>
      <point x="49" y="750" type="line"/>
      <point x="69" y="647"/>
      <point x="50" y="551"/>
    </contour>
  </outline>
</glyph>
<glyph name="asterisk" format="2">
  <advance width="310"/>
  <unicode hex="002A"/>
  <outline>
    <contour>
      <point x="20" y="631" type="line"/>
      <point x="39" y="689" type="line"/>
      <point x="133" y="650" type="line"/>
      <point x="126" y="750" type="line"/>
      <point x="185" y="750" type="line"/>
      <point x="175" y="650" type="line"/>
      <point x="271" y="689" type="line"/>
      <point x="290" y="631" type="line"/>
      <point x="190" y="608" type="line"/>
      <point x="258" y="530" type="line"/>
      <point x="212" y="498" type="line"/>
      <point x="154" y="584" type="line"/>
      <point x="101" y="497" type="line"/>
      <point x="53" y="530" type="line"/>
      <point x="120" y="608" type="line"/>
    </contour>
  </outline>
</glyph>
<glyph name="comma" format="2">
  <advance width="325"/>
  <unicode hex="002C"/>
  <outline>
    <contour>
      <point x="100" y="0" type="line"/>
      <point x="100" y="141" type="line"/>
      <point x="225" y="141" type="line"/>
      <point x="225" y="0" type="line" smooth="yes"/>
      <point x="225" y="-81"/>
      <point x="181" y="-109"/>
      <point x="100" y="-109" type="curve"/>
      <point x="100" y="-69" type="line"/>
      <point x="140" y="-69"/>
      <point x="173" y="-40"/>
      <point x="173" y="0" type="curve"/>
    </contour>
  </outline>
</glyph>
<glyph name="period" format="2">
  <advance width="196"/>
  <unicode hex="002E"/>
  <outline>
    <contour>
      <point x="98" y="156" type="curve" smooth="yes"/>
      <point x="55" y="156"/>
      <point x="20" y="121"/>
      <point x="20" y="78" type="curve" smooth="yes"/>
      <point x="20" y="35"/>
      <point x="55" y="0"/>
      <point x="98" y="0" type="curve" smooth="yes"/>
      <point x="142" y="0"/>
      <point x="176" y="34"/>
      <point x="176" y="78" type="curve" smooth="yes"/>
      <point x="176" y="121"/>
      <point x="141" y="156"/>
    </contour>
  </outline>
</glyph>
<glyph name="zero" format="2">
  <advance width="909"/>
  <unicode hex="0030"/>
  <outline>
    <contour>
      <point x="20" y="356" type="line" smooth="yes"/>
      <point x="20" y="118"/>
      <point x="138" y="0"/>
      <point x="376" y="0" type="curve" smooth="yes"/>
      <point x="533" y="0" type="line" smooth="yes"/>
      <point x="771" y="0"/>
      <point x="889" y="118"/>
      <point x="889" y="356" type="curve" smooth="yes"/>
      <point x="889" y="394" type="line" smooth="yes"/>
      <point x="889" y="632"/>
      <point x="771" y="750"/>
      <point x="533" y="750" type="curve" smooth="yes"/>
      <point x="376" y="750" type="line" smooth="yes"/>
      <point x="138" y="750"/>
      <point x="20" y="632"/>
      <point x="20" y="394" type="curve" smooth="yes"/>
    </contour>
    <contour>
      <point x="158" y="388" type="curve" smooth="yes"/>
      <point x="158" y="553"/>
      <point x="243" y="612"/>
      <point x="401" y="612" type="curve" smooth="yes"/>
      <point x="508" y="612" type="line" smooth="yes"/>
      <point x="691" y="612"/>
      <point x="751" y="539"/>
      <point x="751" y="362" type="curve" smooth="yes"/>
      <point x="751" y="197"/>
      <point x="666" y="138"/>
      <point x="508" y="138" type="curve" smooth="yes"/>
      <point x="401" y="138" type="line" smooth="yes"/>
      <point x="218" y="138"/>
      <point x="158" y="211"/>
    </contour>
    <contour>
      <point x="687" y="484" type="curve" smooth="yes"/>
      <point x="687" y="522"/>
      <point x="656" y="553"/>
      <point x="618" y="553" type="curve" smooth="yes"/>
      <point x="604" y="553"/>
      <point x="591" y="549"/>
      <point x="579" y="541" type="curve" smooth="yes"/>
      <point x="251" y="320" type="line" smooth="yes"/>
      <point x="232" y="307"/>
      <point x="221" y="286"/>
      <point x="221" y="263" type="curve" smooth="yes"/>
      <point x="221" y="225"/>
      <point x="252" y="194"/>
      <point x="290" y="194" type="curve" smooth="yes"/>
      <point x="304" y="194"/>
      <point x="317" y="198"/>
      <point x="329" y="206" type="curve" smooth="yes"/>
      <point x="657" y="427" type="line" smooth="yes"/>
      <point x="676" y="440"/>
      <point x="687" y="461"/>
    </contour>
  </outline>
</glyph>
<glyph name="one" format="2">
  <advance width="1629"/>
  <unicode hex="0031"/>
  <outline>
    <contour>
      <point x="851" y="532" type="curve" smooth="yes"/>
      <point x="853" y="563"/>
      <point x="855" y="598"/>
      <point x="882" y="642" type="curve"/>
      <point x="840" y="750" type="line"/>
      <point x="561" y="658"/>
      <point x="239" y="528"/>
      <point x="10" y="422" type="curve"/>
      <point x="55" y="313" type="line"/>
      <point x="264" y="409"/>
      <point x="498" y="497"/>
      <point x="733" y="581" type="curve"/>
      <point x="733" y="620" type="line"/>
      <point x="723" y="451"/>
      <point x="743" y="308"/>
      <point x="772" y="143" type="curve"/>
      <point x="785" y="89"/>
      <point x="906" y="90"/>
      <point x="894" y="143" type="curve"/>
      <point x="866" y="299"/>
      <point x="849" y="411"/>
    </contour>
    <contour>
      <point x="313" y="-30" type="line"/>
      <point x="352" y="-17" type="line" smooth="yes"/>
      <point x="485" y="28"/>
      <point x="675" y="23"/>
      <point x="846" y="20" type="curve" smooth="yes"/>
      <point x="1153" y="14" type="line" smooth="yes"/>
      <point x="1399" y="10"/>
      <point x="1503" y="28"/>
      <point x="1619" y="81" type="curve"/>
      <point x="1574" y="187" type="line"/>
      <point x="1491" y="148"/>
      <point x="1399" y="133"/>
      <point x="1153" y="139" type="curve" smooth="yes"/>
      <point x="851" y="144" type="line" smooth="yes"/>
      <point x="584" y="150"/>
      <point x="469" y="143"/>
      <point x="325" y="94" type="curve" smooth="yes"/>
      <point x="282" y="80" type="line"/>
    </contour>
  </outline>
</glyph>
<glyph name="two" format="2">
  <advance width="671"/>
  <unicode hex="0032"/>
  <outline>
    <contour>
      <point x="45" y="448" type="line"/>
      <point x="118" y="449" type="line"/>
      <point x="173" y="616" type="line"/>
      <point x="262" y="633"/>
      <point x="422" y="641"/>
      <point x="422" y="566" type="curve"/>
      <point x="422" y="505"/>
      <point x="356" y="467"/>
      <point x="322" y="427" type="curve"/>
      <point x="211" y="345"/>
      <point x="23" y="235"/>
      <point x="22" y="147" type="curve" smooth="yes"/>
      <point x="20" y="0" type="line"/>
      <point x="631" y="0" type="line"/>
      <point x="631" y="271" type="line"/>
      <point x="543" y="271" type="line"/>
      <point x="498" y="127" type="line"/>
      <point x="195" y="127" type="line"/>
      <point x="295" y="282"/>
      <point x="599" y="369"/>
      <point x="599" y="579" type="curve"/>
      <point x="599" y="690"/>
      <point x="509" y="760"/>
      <point x="341" y="760" type="curve"/>
      <point x="246" y="760"/>
      <point x="104" y="751"/>
      <point x="45" y="727" type="curve"/>
    </contour>
  </outline>
</glyph>
<glyph name="three" format="2">
  <advance width="372"/>
  <unicode hex="0033"/>
  <outline>
    <contour>
      <point x="36" y="75" type="line"/>
      <point x="124" y="0" type="line"/>
      <point x="362" y="232" type="line"/>
      <point x="362" y="255" type="line"/>
      <point x="214" y="380" type="line"/>
      <point x="344" y="506" type="line"/>
      <point x="344" y="529" type="line"/>
      <point x="83" y="750" type="line"/>
      <point x="10" y="680" type="line"/>
      <point x="192" y="526" type="line"/>
      <point x="60" y="397" type="line"/>
      <point x="60" y="352" type="line"/>
      <point x="199" y="235" type="line"/>
    </contour>
  </outline>
</glyph>
<glyph name="five" format="2">
  <advance width="600"/>
  <unicode hex="0035"/>
  <outline>
    <contour>
      <point x="114" y="708" type="curve"/>
      <point x="147" y="659"/>
      <point x="147" y="604"/>
      <point x="137" y="481" type="curve" smooth="yes"/>
      <point x="131" y="407"/>
      <point x="103" y="333"/>
      <point x="79" y="270" type="curve"/>
      <point x="154" y="292"/>
      <point x="213" y="295"/>
      <point x="247" y="292" type="curve" smooth="yes"/>
      <point x="305" y="286"/>
      <point x="401" y="258"/>
      <point x="400" y="161" type="curve" smooth="yes"/>
      <point x="399" y="77"/>
      <point x="261" y="30"/>
      <point x="235" y="30" type="curve" smooth="yes"/>
      <point x="189" y="30"/>
      <point x="103" y="65"/>
      <point x="53" y="117" type="curve"/>
      <point x="53" y="-13" type="line"/>
      <point x="100" y="-1"/>
      <point x="221" y="4"/>
      <point x="251" y="4" type="curve" smooth="yes"/>
      <point x="281" y="4"/>
      <point x="384" y="-15"/>
      <point x="445" y="27" type="curve" smooth="yes"/>
      <point x="506" y="69"/>
      <point x="537" y="106"/>
      <point x="537" y="177" type="curve" smooth="yes"/>
      <point x="537" y="248"/>
      <point x="485" y="332"/>
      <point x="397" y="347" type="curve" smooth="yes"/>
      <point x="317" y="361"/>
      <point x="251" y="339"/>
      <point x="218" y="330" type="curve"/>
      <point x="213" y="370"/>
      <point x="264" y="574"/>
      <point x="282" y="612" type="curve"/>
      <point x="356" y="619"/>
      <point x="424" y="606"/>
      <point x="515" y="584" type="curve"/>
      <point x="516" y="621"/>
      <point x="523" y="653"/>
      <point x="542" y="680" type="curve"/>
      <point x="406" y="659"/>
      <point x="265" y="669"/>
    </contour>
  </outline>
</glyph>
<glyph name="six" format="2">
  <advance width="572"/>
  <unicode hex="0036"/>
  <outline>
    <contour>
      <point x="410" y="730" type="line" smooth="yes"/>
      <point x="410" y="743"/>
      <point x="403" y="750"/>
      <point x="390" y="750" type="curve" smooth="yes"/>
      <point x="101" y="743"/>
      <point x="40" y="571"/>
      <point x="40" y="324" type="curve" smooth="yes"/>
      <point x="40" y="104"/>
      <point x="124" y="-10"/>
      <point x="250" y="-10" type="curve" smooth="yes"/>
      <point x="398" y="-10"/>
      <point x="460" y="147"/>
      <point x="460" y="297" type="curve" smooth="yes"/>
      <point x="460" y="422"/>
      <point x="412" y="548"/>
      <point x="311" y="548" type="curve" smooth="yes"/>
      <point x="278" y="548"/>
      <point x="243" y="536"/>
      <point x="215" y="501" type="curve"/>
      <point x="215" y="609"/>
      <point x="255" y="685"/>
      <point x="390" y="692" type="curve" smooth="yes"/>
      <point x="404" y="693"/>
      <point x="410" y="699"/>
      <point x="410" y="712" type="curve" smooth="yes"/>
    </contour>
    <contour>
      <point x="215" y="414" type="line" smooth="yes"/>
      <point x="215" y="437"/>
      <point x="227" y="449"/>
      <point x="250" y="449" type="curve"/>
      <point x="250" y="449" type="line"/>
      <point x="273" y="449"/>
      <point x="285" y="437"/>
      <point x="285" y="414" type="curve" smooth="yes"/>
      <point x="285" y="97" type="line" smooth="yes"/>
      <point x="285" y="74"/>
      <point x="273" y="62"/>
      <point x="250" y="62" type="curve"/>
      <point x="250" y="62" type="line"/>
      <point x="227" y="62"/>
      <point x="215" y="74"/>
      <point x="215" y="97" type="curve" smooth="yes"/>
    </contour>
  </outline>
</glyph>
<glyph name="seven" format="2">
  <advance width="379"/>
  <unicode hex="0037"/>
  <outline>
    <contour>
      <point x="266" y="636" type="line"/>
      <point x="143" y="636" type="line" smooth="yes"/>
      <point x="109" y="636"/>
      <point x="104" y="605"/>
      <point x="86" y="605" type="curve" smooth="yes"/>
      <point x="69" y="605"/>
      <point x="30" y="672"/>
      <point x="20" y="685" type="curve"/>
      <point x="45" y="709"/>
      <point x="59" y="730"/>
      <point x="95" y="730" type="curve" smooth="yes"/>
      <point x="216" y="730" type="line" smooth="yes"/>
      <point x="261" y="730"/>
      <point x="277" y="762"/>
      <point x="291" y="762" type="curve" smooth="yes"/>
      <point x="297" y="762"/>
      <point x="301" y="758"/>
      <point x="304" y="753" type="curve" smooth="yes"/>
      <point x="352" y="661" type="line" smooth="yes"/>
      <point x="356" y="654"/>
      <point x="358" y="647"/>
      <point x="358" y="639" type="curve" smooth="yes"/>
      <point x="358" y="633"/>
      <point x="357" y="628"/>
      <point x="355" y="622" type="curve" smooth="yes"/>
      <point x="148" y="0" type="line"/>
      <point x="104" y="0" type="line"/>
      <point x="88" y="21"/>
      <point x="56" y="53"/>
      <point x="56" y="83" type="curve" smooth="yes"/>
      <point x="56" y="91"/>
      <point x="58" y="98"/>
      <point x="61" y="105" type="curve" smooth="yes"/>
    </contour>
  </outline>
</glyph>
<glyph name="eight" format="2">
  <advance width="549"/>
  <unicode hex="0038"/>
  <outline>
    <contour>
      <point x="207" y="354" type="curve"/>
      <point x="154" y="236"/>
      <point x="48" y="80"/>
      <point x="48" y="0" type="curve"/>
      <point x="465" y="0" type="line"/>
      <point x="474" y="11" type="line"/>
      <point x="498" y="-4" type="line"/>
      <point x="539" y="31" type="line"/>
      <point x="350" y="361" type="line"/>
      <point x="518" y="701" type="line"/>
      <point x="406" y="762" type="line"/>
      <point x="279" y="492" type="line"/>
      <point x="198" y="628" type="line"/>
      <point x="296" y="645" type="line"/>
      <point x="316" y="754" type="line"/>
      <point x="139" y="754"/>
      <point x="10" y="729"/>
      <point x="10" y="707" type="curve"/>
      <point x="10" y="673"/>
      <point x="141" y="472"/>
    </contour>
    <contour>
      <point x="281" y="253" type="line"/>
      <point x="363" y="112" type="line"/>
      <point x="220" y="115" type="line"/>
    </contour>
  </outline>
</glyph>
<glyph name="nine" format="2">
  <advance width="277"/>
  <unicode hex="0039"/>
  <outline>
    <contour>
      <point x="120" y="0" type="curve" smooth="yes"/>
      <point x="195" y="0"/>
      <point x="236" y="72"/>
      <point x="236" y="160" type="curve" smooth="yes"/>
      <point x="236" y="357" type="line"/>
      <point x="267" y="382" type="line"/>
      <point x="236" y="413" type="line"/>
      <point x="236" y="590" type="line" smooth="yes"/>
      <point x="236" y="678"/>
      <point x="196" y="750"/>
      <point x="120" y="750" type="curve" smooth="yes"/>
      <point x="56" y="750"/>
      <point x="11" y="678"/>
      <point x="11" y="590" type="curve" smooth="yes"/>
      <point x="11" y="436" type="line" smooth="yes"/>
      <point x="11" y="368"/>
      <point x="42" y="308"/>
      <point x="120" y="308" type="curve" smooth="yes"/>
      <point x="145" y="308"/>
      <point x="175" y="333"/>
      <point x="181" y="345" type="curve"/>
      <point x="181" y="206" type="line" smooth="yes"/>
      <point x="181" y="179"/>
      <point x="161" y="153"/>
      <point x="120" y="153" type="curve" smooth="yes"/>
      <point x="83" y="153"/>
      <point x="63" y="179"/>
      <point x="63" y="206" type="curve" smooth="yes"/>
      <point x="63" y="294" type="line"/>
      <point x="10" y="294" type="line"/>
      <point x="10" y="154" type="line" smooth="yes"/>
      <point x="10" y="72"/>
      <point x="55" y="0"/>
    </contour>
    <contour>
      <point x="120" y="461" type="curve" smooth="yes"/>
      <point x="82" y="461"/>
      <point x="64" y="481"/>
      <point x="64" y="501" type="curve" smooth="yes"/>
      <point x="64" y="557" type="line" smooth="yes"/>
      <point x="64" y="577"/>
      <point x="82" y="597"/>
      <point x="120" y="597" type="curve" smooth="yes"/>
      <point x="166" y="597"/>
      <point x="183" y="575"/>
      <point x="183" y="555" type="curve" smooth="yes"/>
      <point x="183" y="502" type="line" smooth="yes"/>
      <point x="183" y="482"/>
      <point x="166" y="461"/>
    </contour>
  </outline>
</glyph>
<glyph name="colon" format="2">
  <advance width="196"/>
  <unicode hex="003A"/>
  <outline>
    <contour>
      <point x="98" y="500" type="curve" smooth="yes"/>
      <point x="55" y="500"/>
      <point x="20" y="465"/>
      <point x="20" y="422" type="curve" smooth="yes"/>
      <point x="20" y="379"/>
      <point x="55" y="344"/>
      <point x="98" y="344" type="curve" smooth="yes"/>
      <point x="142" y="344"/>
      <point x="176" y="378"/>
      <point x="176" y="422" type="curve" smooth="yes"/>
      <point x="176" y="465"/>
      <point x="141" y="500"/>
    </contour>
    <contour>
      <point x="98" y="156" type="curve" smooth="yes"/>
      <point x="55" y="156"/>
      <point x="20" y="121"/>
      <point x="20" y="78" type="curve" smooth="yes"/>
      <point x="20" y="35"/>
      <point x="55" y="0"/>
      <point x="98" y="0" type="curve" smooth="yes"/>
      <point x="142" y="0"/>
      <point x="176" y="34"/>
      <point x="176" y="78" type="curve" smooth="yes"/>
      <point x="176" y="121"/>
      <point x="141" y="156"/>
    </contour>
  </outline>
</glyph>
<glyph name="semicolon" format="2">
  <advance width="212"/>
  <unicode hex="003B"/>
  <outline>
    <contour>
      <point x="114" y="500" type="curve" smooth="yes"/>
      <point x="71" y="500"/>
      <point x="36" y="465"/>
      <point x="36" y="422" type="curve" smooth="yes"/>
      <point x="36" y="379"/>
      <point x="71" y="344"/>
      <point x="114" y="344" type="curve" smooth="yes"/>
      <point x="158" y="344"/>
      <point x="192" y="378"/>
      <point x="192" y="422" type="curve" smooth="yes"/>
      <point x="192" y="465"/>
      <point x="157" y="500"/>
    </contour>
    <contour>
      <point x="54" y="-92" type="line"/>
      <point x="158" y="28" type="line" smooth="yes"/>
      <point x="170" y="42"/>
      <point x="176" y="61"/>
      <point x="176" y="79" type="curve" smooth="yes"/>
      <point x="176" y="121"/>
      <point x="141" y="156"/>
      <point x="99" y="156" type="curve" smooth="yes"/>
      <point x="57" y="156"/>
      <point x="20" y="122"/>
      <point x="20" y="79" type="curve" smooth="yes"/>
      <point x="20" y="47"/>
      <point x="39" y="18"/>
      <point x="69" y="6" type="curve"/>
      <point x="44" y="-92" type="line"/>
    </contour>
  </outline>
</glyph>
<glyph name="A" format="2">
  <advance width="637"/>
  <unicode hex="0041"/>
  <image fileName="A_1_sj.jpg" xScale="0.32229410736142683" yScale="0.32229410736142683" xOffset="-0.13953488372093023" yOffset="-74.43189368770764" color="0,0,0,0.25544"/>
  <outline>
    <contour>
      <point x="22" y="672" type="line"/>
      <point x="44" y="657" type="line"/>
      <point x="77" y="696" type="line"/>
      <point x="108" y="690"/>
      <point x="135" y="680"/>
      <point x="160" y="664" type="curve"/>
      <point x="154" y="498"/>
      <point x="112" y="286"/>
      <point x="39" y="109" type="curve"/>
      <point x="57" y="95" type="line"/>
      <point x="154" y="301"/>
      <point x="235" y="534"/>
      <point x="269" y="750" type="curve"/>
      <point x="217" y="759"/>
      <point x="167" y="773"/>
      <point x="117" y="794" type="curve"/>
    </contour>
    <contour>
      <point x="41" y="43" type="curve"/>
      <point x="104" y="24"/>
      <point x="165" y="-3"/>
      <point x="222" y="-40" type="curve"/>
      <point x="243" y="0"/>
      <point x="269" y="38"/>
      <point x="298" y="74" type="curve"/>
      <point x="286" y="82" type="line"/>
      <point x="279" y="75"/>
      <point x="270" y="69"/>
      <point x="259" y="64" type="curve"/>
      <point x="106" y="131" type="line"/>
      <point x="228" y="325"/>
      <point x="335" y="501"/>
      <point x="424" y="726" type="curve"/>
      <point x="456" y="713"/>
      <point x="483" y="697"/>
      <point x="508" y="678" type="curve"/>
      <point x="539" y="705"/>
      <point x="573" y="731"/>
      <point x="608" y="754" type="curve"/>
      <point x="585" y="771" type="line"/>
      <point x="579" y="766"/>
      <point x="574" y="762"/>
      <point x="569" y="757" type="curve"/>
      <point x="484" y="803" type="line"/>
      <point x="439" y="762"/>
      <point x="381" y="751"/>
      <point x="318" y="754" type="curve"/>
      <point x="268" y="513"/>
      <point x="133" y="235"/>
    </contour>
    <contour>
      <point x="469" y="629" type="line"/>
      <point x="390" y="230"/>
      <point x="422" y="46"/>
      <point x="537" y="-35" type="curve"/>
      <point x="558" y="18"/>
      <point x="586" y="67"/>
      <point x="621" y="114" type="curve"/>
      <point x="602" y="127" type="line"/>
      <point x="593" y="118"/>
      <point x="584" y="108"/>
      <point x="577" y="99" type="curve"/>
      <point x="513" y="132"/>
      <point x="515" y="419"/>
      <point x="568" y="652" type="curve"/>
      <point x="576" y="665"/>
      <point x="587" y="678"/>
      <point x="603" y="691" type="curve"/>
      <point x="592" y="705" type="line"/>
    </contour>
    <contour>
      <point x="135" y="145" type="curve"/>
      <point x="153" y="133" type="line"/>
      <point x="231" y="186"/>
      <point x="304" y="192"/>
      <point x="375" y="165" type="curve"/>
      <point x="411" y="234" type="line"/>
      <point x="315" y="249"/>
      <point x="204" y="230"/>
    </contour>
  </outline>
</glyph>
<glyph name="C" format="2">
  <advance width="536"/>
  <unicode hex="0043"/>
  <unicode hex="0063"/>
  <outline>
    <contour>
      <point x="307" y="45" type="curve" smooth="yes"/>
      <point x="165" y="45"/>
      <point x="140" y="209"/>
      <point x="140" y="319" type="curve" smooth="yes"/>
      <point x="140" y="432"/>
      <point x="168" y="699"/>
      <point x="329" y="699" type="curve" smooth="yes"/>
      <point x="353" y="699"/>
      <point x="385" y="687"/>
      <point x="385" y="658" type="curve" smooth="yes"/>
      <point x="385" y="631"/>
      <point x="361" y="601"/>
      <point x="344" y="582" type="curve"/>
      <point x="344" y="558" type="line"/>
      <point x="379" y="526" type="line"/>
      <point x="469" y="608" type="line"/>
      <point x="459" y="697"/>
      <point x="416" y="760"/>
      <point x="320" y="760" type="curve" smooth="yes"/>
      <point x="107" y="760"/>
      <point x="20" y="535"/>
      <point x="20" y="354" type="curve" smooth="yes"/>
      <point x="20" y="229"/>
      <point x="58" y="82"/>
      <point x="171" y="11" type="curve" smooth="yes"/>
      <point x="201" y="-8"/>
      <point x="236" y="-20"/>
      <point x="271" y="-20" type="curve" smooth="yes"/>
      <point x="353" y="-20"/>
      <point x="407" y="36"/>
      <point x="453" y="36" type="curve" smooth="yes"/>
      <point x="461" y="36"/>
      <point x="474" y="33"/>
      <point x="479" y="25" type="curve"/>
      <point x="536" y="158" type="line"/>
      <point x="524" y="194" type="line"/>
      <point x="479" y="201" type="line"/>
      <point x="451" y="130"/>
      <point x="393" y="45"/>
    </contour>
  </outline>
</glyph>
<glyph name="D" format="2">
  <advance width="717"/>
  <unicode hex="0044"/>
  <outline>
    <contour>
      <point x="352.89817029275855" y="522" type="curve" smooth="yes"/>
      <point x="352.89817029275855" y="476"/>
      <point x="311.89817029275855" y="436"/>
      <point x="281.89817029275855" y="385" type="curve" smooth="yes"/>
      <point x="256.89817029275855" y="341"/>
      <point x="236.89817029275855" y="292"/>
      <point x="236.89817029275855" y="240" type="curve" smooth="yes"/>
      <point x="236.89817029275855" y="178"/>
      <point x="279.89817029275855" y="129"/>
      <point x="354.89817029275855" y="129" type="curve" smooth="yes"/>
      <point x="465.89817029275855" y="129"/>
      <point x="531.8981702927586" y="270"/>
      <point x="527.8981702927586" y="412" type="curve" smooth="yes"/>
      <point x="523.8981702927586" y="532"/>
      <point x="435.89817029275855" y="634"/>
      <point x="299.89817029275855" y="634" type="curve" smooth="yes"/>
      <point x="199.89817029275855" y="634"/>
      <point x="127.89817029275855" y="590"/>
      <point x="113.89817029275855" y="473" type="curve" smooth="yes"/>
      <point x="107.89817029275855" y="421"/>
      <point x="79.89817029275855" y="408"/>
      <point x="57.89817029275855" y="408" type="curve" smooth="yes"/>
      <point x="29.89817029275855" y="408"/>
      <point x="4.89817029275855" y="427"/>
      <point x="10.89817029275855" y="473" type="curve" smooth="yes"/>
      <point x="13.89817029275855" y="498"/>
      <point x="14.89817029275855" y="538"/>
      <point x="14.89817029275855" y="566" type="curve" smooth="yes"/>
      <point x="14.89817029275855" y="600"/>
      <point x="10.89817029275855" y="623"/>
      <point x="10.89817029275855" y="654" type="curve" smooth="yes"/>
      <point x="10.89817029275855" y="710"/>
      <point x="48.89817029275855" y="747"/>
      <point x="100.89817029275855" y="747" type="curve" smooth="yes"/>
      <point x="174.89817029275855" y="747"/>
      <point x="236.89817029275855" y="735"/>
      <point x="315.89817029275855" y="735" type="curve" smooth="yes"/>
      <point x="385.89817029275855" y="735"/>
      <point x="442.89817029275855" y="756"/>
      <point x="518.8981702927586" y="756" type="curve" smooth="yes"/>
      <point x="629.8981702927586" y="756"/>
      <point x="706.8981702927586" y="660"/>
      <point x="706.8981702927586" y="538" type="curve" smooth="yes"/>
      <point x="706.8981702927586" y="448"/>
      <point x="665.8981702927586" y="373"/>
      <point x="646.8981702927586" y="292" type="curve" smooth="yes"/>
      <point x="629.8981702927586" y="224"/>
      <point x="632.8981702927586" y="136"/>
      <point x="604.8981702927586" y="87" type="curve" smooth="yes"/>
      <point x="579.8981702927586" y="43"/>
      <point x="543.8981702927586" y="3"/>
      <point x="478.89817029275855" y="3" type="curve" smooth="yes"/>
      <point x="431.89817029275855" y="3"/>
      <point x="382.89817029275855" y="13"/>
      <point x="334.89817029275855" y="13" type="curve" smooth="yes"/>
      <point x="288.89817029275855" y="13"/>
      <point x="241.89817029275855" y="-6"/>
      <point x="195.89817029275855" y="-6" type="curve" smooth="yes"/>
      <point x="140.89817029275855" y="-6"/>
      <point x="64.89817029275855" y="19"/>
      <point x="60.89817029275855" y="96" type="curve" smooth="yes"/>
      <point x="59.89817029275855" y="135"/>
      <point x="70.89817029275855" y="164"/>
      <point x="96.89817029275855" y="222" type="curve" smooth="yes"/>
      <point x="142.89817029275855" y="328"/>
      <point x="133.89817029275855" y="399"/>
      <point x="165.89817029275855" y="485" type="curve" smooth="yes"/>
      <point x="187.89817029275855" y="544"/>
      <point x="248.89817029275855" y="577"/>
      <point x="294.89817029275855" y="577" type="curve" smooth="yes"/>
      <point x="334.89817029275855" y="577"/>
      <point x="352.89817029275855" y="545"/>
    </contour>
  </outline>
</glyph>
<glyph name="E" format="2">
  <advance width="500"/>
  <unicode hex="0045"/>
  <outline>
    <contour>
      <point x="107" y="750" type="line"/>
      <point x="107" y="0" type="line"/>
      <point x="388" y="0" type="line"/>
      <point x="388" y="107" type="line"/>
      <point x="212" y="107" type="line"/>
      <point x="212" y="238" type="line"/>
      <point x="433" y="238" type="line"/>
      <point x="433" y="338" type="line"/>
      <point x="212" y="338" type="line"/>
      <point x="212" y="643" type="line"/>
      <point x="389" y="643" type="line"/>
      <point x="389" y="750" type="line"/>
    </contour>
  </outline>
</glyph>
<glyph name="H" format="2">
  <advance width="517"/>
  <unicode hex="0048"/>
  <unicode hex="0068"/>
  <outline>
    <contour>
      <point x="192" y="0" type="line"/>
      <point x="193" y="267" type="line"/>
      <point x="257" y="208" type="line"/>
      <point x="324" y="281" type="line"/>
      <point x="325" y="0" type="line"/>
      <point x="497" y="0" type="line"/>
      <point x="493" y="750" type="line"/>
      <point x="321" y="750" type="line"/>
      <point x="323" y="470" type="line"/>
      <point x="255" y="396" type="line"/>
      <point x="194" y="455" type="line"/>
      <point x="196" y="750" type="line"/>
      <point x="24" y="750" type="line"/>
      <point x="20" y="0" type="line"/>
    </contour>
  </outline>
</glyph>
<glyph name="I" format="2">
  <advance width="350"/>
  <unicode hex="0049"/>
  <unicode hex="0069"/>
  <outline>
    <contour>
      <point x="78" y="675" type="curve"/>
      <point x="121" y="697"/>
      <point x="154" y="732"/>
      <point x="177" y="774" type="curve"/>
      <point x="200" y="732"/>
      <point x="233" y="696"/>
      <point x="276" y="675" type="curve"/>
      <point x="233" y="652"/>
      <point x="199" y="618"/>
      <point x="177" y="575" type="curve"/>
      <point x="154" y="617"/>
      <point x="121" y="653"/>
    </contour>
    <contour>
      <point x="145" y="674" type="curve"/>
      <point x="164" y="674"/>
      <point x="181" y="720"/>
      <point x="181" y="736" type="curve" smooth="yes"/>
      <point x="181" y="740"/>
      <point x="180" y="744"/>
      <point x="177" y="746" type="curve"/>
      <point x="111" y="674" type="line"/>
      <point x="177" y="601" type="line"/>
      <point x="180" y="603"/>
      <point x="181" y="608"/>
      <point x="181" y="611" type="curve" smooth="yes"/>
      <point x="181" y="627"/>
      <point x="164" y="674"/>
    </contour>
    <contour>
      <point x="20" y="394" type="line"/>
      <point x="129" y="520" type="line"/>
      <point x="235" y="437" type="line"/>
      <point x="265" y="472" type="line"/>
      <point x="279" y="461" type="line"/>
      <point x="249" y="426" type="line"/>
      <point x="249" y="122" type="line"/>
      <point x="284" y="94" type="line"/>
      <point x="316" y="131" type="line"/>
      <point x="330" y="119" type="line"/>
      <point x="211" y="-19" type="line"/>
      <point x="112" y="59" type="line"/>
      <point x="86" y="29" type="line"/>
      <point x="72" y="40" type="line"/>
      <point x="112" y="87" type="line"/>
      <point x="112" y="377" type="line"/>
      <point x="63" y="416" type="line"/>
      <point x="34" y="383" type="line"/>
    </contour>
  </outline>
</glyph>
<glyph name="J" format="2">
  <advance width="379"/>
  <unicode hex="004A"/>
  <outline>
    <contour>
      <point x="191" y="605" type="curve"/>
      <point x="171" y="634" type="line"/>
      <point x="184" y="50" type="line"/>
      <point x="200" y="85" type="line"/>
      <point x="145" y="29"/>
      <point x="81" y="-14"/>
      <point x="10" y="-45" type="curve"/>
      <point x="86" y="-158" type="line"/>
      <point x="165" y="-120"/>
      <point x="243" y="-64"/>
      <point x="310" y="11" type="curve"/>
      <point x="329" y="708" type="line"/>
      <point x="243" y="730"/>
      <point x="151" y="746"/>
      <point x="53" y="756" type="curve"/>
      <point x="29" y="626" type="line"/>
      <point x="90" y="622"/>
      <point x="142" y="614"/>
    </contour>
  </outline>
</glyph>
<glyph name="L" format="2">
  <advance width="318"/>
  <unicode hex="004C"/>
  <unicode hex="006C"/>
  <outline>
    <contour>
      <point x="188" y="0" type="line"/>
      <point x="298" y="144" type="line"/>
      <point x="282" y="157" type="line"/>
      <point x="251" y="117" type="line"/>
      <point x="195" y="162" type="line"/>
      <point x="195" y="675" type="line" smooth="yes"/>
      <point x="195" y="702"/>
      <point x="205" y="730"/>
      <point x="223" y="750" type="curve"/>
      <point x="183" y="750"/>
      <point x="157" y="731"/>
      <point x="136" y="698" type="curve"/>
      <point x="114" y="739"/>
      <point x="62" y="750"/>
      <point x="20" y="750" type="curve"/>
      <point x="48" y="735"/>
      <point x="64" y="710"/>
      <point x="64" y="678" type="curve" smooth="yes"/>
      <point x="64" y="106" type="line"/>
      <point x="31" y="63" type="line"/>
      <point x="47" y="50" type="line"/>
      <point x="76" y="88" type="line"/>
    </contour>
    <contour>
      <point x="185" y="28" type="line"/>
      <point x="81" y="109" type="line"/>
      <point x="81" y="708" type="line"/>
      <point x="98" y="708"/>
      <point x="103" y="671"/>
      <point x="103" y="659" type="curve" smooth="yes"/>
      <point x="103" y="123" type="line"/>
      <point x="198" y="45" type="line"/>
    </contour>
  </outline>
</glyph>
<glyph name="M" format="2">
  <advance width="431"/>
  <unicode hex="004D"/>
  <unicode hex="006D"/>
  <outline>
    <contour>
      <point x="89" y="0" type="line"/>
      <point x="89" y="557" type="line"/>
      <point x="173" y="415" type="line"/>
      <point x="268" y="581" type="line"/>
      <point x="268" y="0" type="line"/>
      <point x="411" y="0" type="line"/>
      <point x="411" y="750" type="line"/>
      <point x="279" y="750" type="line"/>
      <point x="198" y="600" type="line"/>
      <point x="114" y="750" type="line"/>
      <point x="20" y="750" type="line"/>
      <point x="20" y="0" type="line"/>
    </contour>
  </outline>
</glyph>
<glyph name="N" format="2">
  <advance width="578"/>
  <unicode hex="004E"/>
  <unicode hex="006E"/>
  <outline>
    <contour>
      <point x="20" y="750" type="line"/>
      <point x="20" y="0" type="line"/>
      <point x="183" y="0" type="line"/>
      <point x="183" y="423" type="line"/>
      <point x="395" y="109" type="line"/>
      <point x="395" y="0" type="line"/>
      <point x="558" y="0" type="line"/>
      <point x="558" y="750" type="line"/>
      <point x="395" y="750" type="line"/>
      <point x="395" y="436" type="line"/>
      <point x="183" y="750" type="line"/>
    </contour>
  </outline>
</glyph>
<glyph name="O" format="2">
  <advance width="790"/>
  <unicode hex="004F"/>
  <unicode hex="006F"/>
  <outline>
    <contour>
      <point x="20" y="0" type="line"/>
      <point x="770" y="0" type="line"/>
      <point x="770" y="750" type="line"/>
      <point x="20" y="750" type="line"/>
    </contour>
  </outline>
</glyph>
<glyph name="Q" format="2">
  <advance width="811"/>
  <unicode hex="0051"/>
  <unicode hex="0071"/>
  <outline>
    <contour>
      <point x="179" y="600" type="line"/>
      <point x="631" y="600" type="line"/>
      <point x="631" y="750" type="line"/>
      <point x="179" y="750" type="line"/>
    </contour>
    <contour>
      <point x="179" y="148" type="line"/>
      <point x="179" y="600" type="line"/>
      <point x="29" y="600" type="line"/>
      <point x="29" y="148" type="line"/>
    </contour>
    <contour>
      <point x="481" y="300" type="line"/>
      <point x="481" y="450" type="line"/>
      <point x="331" y="450" type="line"/>
      <point x="331" y="300" type="line"/>
    </contour>
    <contour>
      <point x="781" y="300" type="line"/>
      <point x="781" y="600" type="line"/>
      <point x="631" y="600" type="line"/>
      <point x="631" y="300" type="line"/>
    </contour>
    <contour>
      <point x="631" y="150" type="line"/>
      <point x="631" y="300" type="line"/>
      <point x="481" y="300" type="line"/>
      <point x="481" y="150" type="line"/>
    </contour>
    <contour>
      <point x="481" y="0" type="line"/>
      <point x="481" y="150" type="line"/>
      <point x="179" y="150" type="line"/>
      <point x="179" y="0" type="line"/>
    </contour>
    <contour>
      <point x="781" y="0" type="line"/>
      <point x="781" y="150" type="line"/>
      <point x="631" y="150" type="line"/>
      <point x="631" y="0" type="line"/>
    </contour>
  </outline>
</glyph>
<glyph name="T" format="2">
  <advance width="600"/>
  <unicode hex="0054"/>
  <outline>
    <contour>
      <point x="43" y="627" type="curve"/>
      <point x="106" y="651"/>
      <point x="212" y="698"/>
      <point x="233" y="699" type="curve" smooth="yes"/>
      <point x="254" y="700"/>
      <point x="471" y="696"/>
      <point x="562" y="686" type="curve" smooth="yes"/>
      <point x="624" y="679" type="line"/>
      <point x="654" y="591" type="line"/>
      <point x="598" y="573"/>
      <point x="499" y="549"/>
      <point x="468" y="549" type="curve"/>
      <point x="479" y="534"/>
      <point x="511" y="489"/>
      <point x="511" y="473" type="curve" smooth="yes"/>
      <point x="510" y="432"/>
      <point x="430" y="298"/>
      <point x="401" y="224" type="curve" smooth="yes"/>
      <point x="344" y="81" type="line"/>
      <point x="176" y="0" type="line"/>
      <point x="171" y="126"/>
      <point x="177" y="268"/>
      <point x="193" y="372" type="curve" smooth="yes"/>
      <point x="215" y="515" type="line"/>
      <point x="170" y="515"/>
      <point x="91" y="509"/>
      <point x="80" y="519" type="curve"/>
      <point x="64" y="550"/>
      <point x="51" y="587"/>
    </contour>
  </outline>
</glyph>
<glyph name="U" format="2">
  <advance width="731"/>
  <unicode hex="0055"/>
  <outline>
    <contour>
      <point x="58" y="750" type="line"/>
      <point x="-25" y="615"/>
      <point x="-69" y="466"/>
      <point x="-69" y="309" type="curve" smooth="yes"/>
      <point x="-69" y="57"/>
      <point x="79" y="-14"/>
      <point x="240" y="-14" type="curve" smooth="yes"/>
      <point x="409" y="-14"/>
      <point x="494" y="139"/>
      <point x="510" y="171" type="curve"/>
      <point x="606" y="0" type="line"/>
      <point x="694" y="0" type="line"/>
      <point x="694" y="750" type="line"/>
      <point x="475" y="750" type="line"/>
      <point x="475" y="375" type="line" smooth="yes"/>
      <point x="475" y="203"/>
      <point x="396" y="86"/>
      <point x="303" y="86" type="curve" smooth="yes"/>
      <point x="208" y="86"/>
      <point x="142" y="161"/>
      <point x="142" y="341" type="curve" smooth="yes"/>
      <point x="142" y="495"/>
      <point x="173" y="623"/>
      <point x="215" y="750" type="curve"/>
    </contour>
  </outline>
</glyph>
<glyph name="V" format="2">
  <advance width="739"/>
  <unicode hex="0056"/>
  <outline>
    <contour>
      <point x="194" y="649" type="curve" smooth="yes"/>
      <point x="356" y="149" type="line"/>
      <point x="542" y="648" type="line" smooth="yes"/>
      <point x="553" y="678"/>
      <point x="549" y="707"/>
      <point x="519" y="707" type="curve" smooth="yes"/>
      <point x="484" y="707" type="line"/>
      <point x="484" y="750" type="line"/>
      <point x="729" y="750" type="line"/>
      <point x="729" y="707" type="line"/>
      <point x="696" y="707" type="line" smooth="yes"/>
      <point x="651" y="707"/>
      <point x="624" y="687"/>
      <point x="604" y="639" type="curve" smooth="yes"/>
      <point x="337" y="0" type="line"/>
      <point x="316" y="0" type="line"/>
      <point x="85" y="670" type="line" smooth="yes"/>
      <point x="76" y="696"/>
      <point x="59" y="707"/>
      <point x="33" y="707" type="curve" smooth="yes"/>
      <point x="10" y="707" type="line"/>
      <point x="10" y="749" type="line"/>
      <point x="294" y="749" type="line"/>
      <point x="294" y="707" type="line"/>
      <point x="227" y="707" type="line" smooth="yes"/>
      <point x="190" y="707"/>
      <point x="186" y="675"/>
    </contour>
  </outline>
</glyph>
<glyph name="W" format="2">
  <advance width="930"/>
  <unicode hex="0057"/>
  <outline>
    <contour>
      <point x="40" y="664" type="line"/>
      <point x="137" y="773" type="line"/>
      <point x="308" y="576" type="line"/>
      <point x="432" y="750" type="line"/>
      <point x="566" y="557" type="line"/>
      <point x="790" y="792" type="line"/>
      <point x="874" y="656" type="line"/>
      <point x="717" y="463"/>
      <point x="638" y="242"/>
      <point x="602" y="16" type="curve"/>
      <point x="441" y="357" type="line"/>
      <point x="263" y="-45" type="line"/>
      <point x="168" y="413" type="line"/>
    </contour>
  </outline>
</glyph>
<glyph name="X" format="2">
  <advance width="551"/>
  <unicode hex="0058"/>
  <unicode hex="0078"/>
  <outline>
    <contour>
      <point x="122" y="265" type="line"/>
      <point x="380" y="264" type="line" smooth="yes"/>
      <point x="415" y="264"/>
      <point x="429" y="240"/>
      <point x="429" y="207" type="curve" smooth="yes"/>
      <point x="429" y="46" type="line" smooth="yes"/>
      <point x="429" y="17"/>
      <point x="453" y="0"/>
      <point x="480" y="0" type="curve" smooth="yes"/>
      <point x="507" y="0"/>
      <point x="531" y="17"/>
      <point x="531" y="46" type="curve" smooth="yes"/>
      <point x="531" y="201" type="line" smooth="yes"/>
      <point x="531" y="343"/>
      <point x="409" y="348"/>
      <point x="295" y="348" type="curve"/>
      <point x="316" y="359"/>
      <point x="334" y="378"/>
      <point x="334" y="403" type="curve" smooth="yes"/>
      <point x="334" y="425"/>
      <point x="319" y="444"/>
      <point x="301" y="456" type="curve"/>
      <point x="385" y="456"/>
      <point x="514" y="474"/>
      <point x="514" y="584" type="curve" smooth="yes"/>
      <point x="514" y="705" type="line" smooth="yes"/>
      <point x="514" y="734"/>
      <point x="490" y="750"/>
      <point x="463" y="750" type="curve" smooth="yes"/>
      <point x="436" y="750"/>
      <point x="412" y="734"/>
      <point x="412" y="705" type="curve" smooth="yes"/>
      <point x="411" y="540" type="line"/>
      <point x="123" y="540" type="line"/>
      <point x="123" y="705" type="line" smooth="yes"/>
      <point x="123" y="730"/>
      <point x="106" y="750"/>
      <point x="80" y="750" type="curve" smooth="yes"/>
      <point x="54" y="750"/>
      <point x="37" y="730"/>
      <point x="37" y="705" type="curve" smooth="yes"/>
      <point x="37" y="571" type="line" smooth="yes"/>
      <point x="37" y="494"/>
      <point x="122" y="456"/>
      <point x="189" y="456" type="curve" smooth="yes"/>
      <point x="220" y="456"/>
      <point x="245" y="436"/>
      <point x="245" y="404" type="curve" smooth="yes"/>
      <point x="245" y="365"/>
      <point x="210" y="346"/>
      <point x="175" y="346" type="curve" smooth="yes"/>
      <point x="103" y="346"/>
      <point x="20" y="317"/>
      <point x="20" y="232" type="curve" smooth="yes"/>
      <point x="20" y="46" type="line" smooth="yes"/>
      <point x="20" y="17"/>
      <point x="44" y="0"/>
      <point x="71" y="0" type="curve" smooth="yes"/>
      <point x="98" y="0"/>
      <point x="122" y="17"/>
      <point x="122" y="46" type="curve" smooth="yes"/>
    </contour>
  </outline>
</glyph>
<glyph name="Y" format="2">
  <advance width="576"/>
  <unicode hex="0059"/>
  <unicode hex="0079"/>
  <outline>
    <contour>
      <point x="91" y="750" type="line"/>
      <point x="59" y="62" type="line"/>
      <point x="40" y="50"/>
      <point x="20" y="34"/>
      <point x="20" y="9" type="curve" smooth="yes"/>
      <point x="20" y="-28"/>
      <point x="63" y="-40"/>
      <point x="93" y="-40" type="curve" smooth="yes"/>
      <point x="133" y="-40"/>
      <point x="163" y="-7"/>
      <point x="165" y="32" type="curve" smooth="yes"/>
      <point x="169" y="142" type="line"/>
      <point x="355" y="183" type="line"/>
      <point x="500" y="624" type="line"/>
      <point x="553" y="634" type="line"/>
      <point x="556" y="750" type="line"/>
      <point x="419" y="750" type="line"/>
      <point x="281" y="281" type="line"/>
      <point x="190" y="274" type="line"/>
      <point x="218" y="750" type="line"/>
    </contour>
  </outline>
</glyph>
<glyph name="exclamdown" format="2">
  <advance width="240"/>
  <unicode hex="00A1"/>
  <outline>
    <contour>
      <point x="120" y="360" type="curve" smooth="yes"/>
      <point x="81" y="360"/>
      <point x="50" y="391"/>
      <point x="50" y="430" type="curve" smooth="yes"/>
      <point x="50" y="469"/>
      <point x="81" y="500"/>
      <point x="120" y="500" type="curve" smooth="yes"/>
      <point x="159" y="500"/>
      <point x="190" y="469"/>
      <point x="190" y="430" type="curve" smooth="yes"/>
      <point x="190" y="391"/>
      <point x="159" y="360"/>
    </contour>
    <contour>
      <point x="20" y="-250" type="line"/>
      <point x="70" y="305" type="line"/>
      <point x="170" y="306" type="line"/>
      <point x="220" y="-250" type="line"/>
    </contour>
  </outline>
</glyph>
<glyph name="periodcentered" format="2">
  <advance width="180"/>
  <unicode hex="00B7"/>
  <outline>
    <contour>
      <point x="90" y="340" type="curve" smooth="yes"/>
      <point x="51" y="340"/>
      <point x="20" y="309"/>
      <point x="20" y="270" type="curve" smooth="yes"/>
      <point x="20" y="231"/>
      <point x="51" y="200"/>
      <point x="90" y="200" type="curve" smooth="yes"/>
      <point x="129" y="200"/>
      <point x="160" y="231"/>
      <point x="160" y="270" type="curve" smooth="yes"/>
      <point x="160" y="309"/>
      <point x="129" y="340"/>
    </contour>
  </outline>
</glyph>
<glyph name="questiondown" format="2">
  <advance width="446"/>
  <unicode hex="00BF"/>
  <outline>
    <contour>
      <point x="310" y="500" type="curve" smooth="yes"/>
      <point x="271" y="500"/>
      <point x="240" y="469"/>
      <point x="240" y="430" type="curve" smooth="yes"/>
      <point x="240" y="391"/>
      <point x="271" y="360"/>
      <point x="310" y="360" type="curve" smooth="yes"/>
      <point x="349" y="360"/>
      <point x="380" y="391"/>
      <point x="380" y="430" type="curve" smooth="yes"/>
      <point x="380" y="469"/>
      <point x="349" y="500"/>
    </contour>
    <contour>
      <point x="314" y="322" type="curve"/>
      <point x="304" y="338"/>
      <point x="286" y="347"/>
      <point x="267" y="347" type="curve" smooth="yes"/>
      <point x="247" y="347"/>
      <point x="228" y="336"/>
      <point x="217" y="319" type="curve"/>
      <point x="245" y="319"/>
      <point x="261" y="292"/>
      <point x="261" y="266" type="curve" smooth="yes"/>
      <point x="261" y="246"/>
      <point x="249" y="220"/>
      <point x="226" y="220" type="curve"/>
      <point x="234" y="209"/>
      <point x="248" y="203"/>
      <point x="262" y="203" type="curve" smooth="yes"/>
      <point x="280" y="203"/>
      <point x="297" y="213"/>
      <point x="306" y="228" type="curve"/>
      <point x="317" y="213"/>
      <point x="334" y="203"/>
      <point x="352" y="203" type="curve" smooth="yes"/>
      <point x="366" y="203"/>
      <point x="379" y="209"/>
      <point x="388" y="220" type="curve"/>
      <point x="364" y="220"/>
      <point x="353" y="247"/>
      <point x="353" y="267" type="curve" smooth="yes"/>
      <point x="353" y="290"/>
      <point x="367" y="317"/>
      <point x="393" y="317" type="curve"/>
      <point x="393" y="335"/>
      <point x="381" y="347"/>
      <point x="363" y="347" type="curve" smooth="yes"/>
      <point x="344" y="347"/>
      <point x="326" y="336"/>
    </contour>
    <contour>
      <point x="305" y="297" type="curve"/>
      <point x="317" y="287"/>
      <point x="330" y="270"/>
      <point x="330" y="253" type="curve" smooth="yes"/>
      <point x="330" y="247"/>
      <point x="328" y="240"/>
      <point x="321" y="240" type="curve" smooth="yes"/>
      <point x="315" y="240"/>
      <point x="309" y="244"/>
      <point x="305" y="249" type="curve"/>
      <point x="301" y="245"/>
      <point x="295" y="240"/>
      <point x="289" y="240" type="curve" smooth="yes"/>
      <point x="282" y="240"/>
      <point x="280" y="247"/>
      <point x="280" y="253" type="curve" smooth="yes"/>
      <point x="280" y="270"/>
      <point x="293" y="287"/>
    </contour>
    <contour>
      <point x="306" y="211" type="curve"/>
      <point x="294" y="194"/>
      <point x="272" y="195"/>
      <point x="254" y="195" type="curve" smooth="yes"/>
      <point x="110" y="195"/>
      <point x="20" y="117"/>
      <point x="20" y="-30" type="curve" smooth="yes"/>
      <point x="20" y="-153"/>
      <point x="96" y="-236"/>
      <point x="220" y="-236" type="curve" smooth="yes"/>
      <point x="255" y="-236"/>
      <point x="289" y="-227"/>
      <point x="323" y="-227" type="curve" smooth="yes"/>
      <point x="346" y="-227"/>
      <point x="367" y="-234"/>
      <point x="384" y="-250" type="curve"/>
      <point x="390" y="-245"/>
      <point x="392" y="-237"/>
      <point x="392" y="-230" type="curve" smooth="yes"/>
      <point x="392" y="-207"/>
      <point x="375" y="-188"/>
      <point x="353" y="-183" type="curve"/>
      <point x="397" y="-171"/>
      <point x="425" y="-133"/>
      <point x="425" y="-87" type="curve" smooth="yes"/>
      <point x="425" y="-51"/>
      <point x="406" y="-15"/>
      <point x="370" y="-4" type="curve"/>
      <point x="370" y="-82"/>
      <point x="323" y="-185"/>
      <point x="232" y="-185" type="curve" smooth="yes"/>
      <point x="146" y="-185"/>
      <point x="125" y="-116"/>
      <point x="125" y="-42" type="curve" smooth="yes"/>
      <point x="125" y="54"/>
      <point x="177" y="137"/>
      <point x="280" y="137" type="curve" smooth="yes"/>
      <point x="302" y="137"/>
      <point x="325" y="133"/>
      <point x="346" y="125" type="curve"/>
      <point x="347" y="195" type="line"/>
      <point x="331" y="195"/>
      <point x="316" y="197"/>
    </contour>
    <contour>
      <point x="97" y="101" type="curve" smooth="yes"/>
      <point x="105" y="101"/>
      <point x="111" y="95"/>
      <point x="111" y="87" type="curve" smooth="yes"/>
      <point x="111" y="80"/>
      <point x="104" y="74"/>
      <point x="97" y="74" type="curve" smooth="yes"/>
      <point x="90" y="74"/>
      <point x="84" y="80"/>
      <point x="84" y="87" type="curve" smooth="yes"/>
      <point x="84" y="94"/>
      <point x="90" y="101"/>
    </contour>
    <contour>
      <point x="75" y="-9" type="curve" smooth="yes"/>
      <point x="83" y="-9"/>
      <point x="89" y="-15"/>
      <point x="89" y="-23" type="curve" smooth="yes"/>
      <point x="89" y="-31"/>
      <point x="82" y="-36"/>
      <point x="75" y="-36" type="curve" smooth="yes"/>
      <point x="68" y="-36"/>
      <point x="62" y="-30"/>
      <point x="62" y="-23" type="curve" smooth="yes"/>
      <point x="62" y="-16"/>
      <point x="68" y="-9"/>
    </contour>
    <contour>
      <point x="97" y="-119" type="curve" smooth="yes"/>
      <point x="105" y="-119"/>
      <point x="111" y="-125"/>
      <point x="111" y="-133" type="curve" smooth="yes"/>
      <point x="111" y="-141"/>
      <point x="104" y="-146"/>
      <point x="97" y="-146" type="curve" smooth="yes"/>
      <point x="90" y="-146"/>
      <point x="84" y="-140"/>
      <point x="84" y="-133" type="curve" smooth="yes"/>
      <point x="84" y="-126"/>
      <point x="90" y="-119"/>
    </contour>
  </outline>
</glyph>
<glyph name="bullet" format="2">
  <advance width="320"/>
  <unicode hex="2022"/>
  <outline>
    <contour>
      <point x="160" y="410" type="curve" smooth="yes"/>
      <point x="82" y="410"/>
      <point x="20" y="348"/>
      <point x="20" y="270" type="curve" smooth="yes"/>
      <point x="20" y="192"/>
      <point x="82" y="130"/>
      <point x="160" y="130" type="curve" smooth="yes"/>
      <point x="238" y="130"/>
      <point x="300" y="192"/>
      <point x="300" y="270" type="curve" smooth="yes"/>
      <point x="300" y="348"/>
      <point x="238" y="410"/>
    </contour>
  </outline>
</glyph>
<glyph name="A.001" format="2">
  <advance width="708"/>
  <outline>
    <contour>
      <point x="416" y="206" type="line"/>
      <point x="489" y="0" type="line"/>
      <point x="708" y="0" type="line"/>
      <point x="580" y="242"/>
      <point x="474" y="496"/>
      <point x="401" y="760" type="curve"/>
      <point x="224" y="760" type="line"/>
      <point x="185" y="597"/>
      <point x="125" y="445"/>
      <point x="53" y="294" type="curve" smooth="yes"/>
      <point x="33" y="252"/>
      <point x="20" y="222"/>
      <point x="20" y="175" type="curve" smooth="yes"/>
      <point x="20" y="74"/>
      <point x="99" y="-20"/>
      <point x="203" y="-20" type="curve" smooth="yes"/>
      <point x="324" y="-20"/>
      <point x="401" y="95"/>
      <point x="408" y="206" type="curve"/>
    </contour>
    <contour>
      <point x="309" y="468" type="line"/>
      <point x="323" y="468" type="line"/>
      <point x="381" y="304" type="line"/>
      <point x="369" y="250"/>
      <point x="321" y="150"/>
      <point x="255" y="150" type="curve" smooth="yes"/>
      <point x="223" y="150"/>
      <point x="207" y="170"/>
      <point x="207" y="201" type="curve" smooth="yes"/>
      <point x="207" y="223"/>
      <point x="214" y="244"/>
      <point x="222" y="264" type="curve" smooth="yes"/>
    </contour>
  </outline>
</glyph>
<glyph name="A.002" format="2">
  <advance width="557"/>
  <outline>
    <contour>
      <point x="151" y="-17" type="line"/>
      <point x="180" y="72" type="line"/>
      <point x="286" y="-22" type="line"/>
      <point x="385" y="60" type="line"/>
      <point x="414" y="-27" type="line"/>
      <point x="557" y="45" type="line"/>
      <point x="313" y="765" type="line"/>
      <point x="250" y="767" type="line"/>
      <point x="0" y="32" type="line"/>
    </contour>
    <contour>
      <point x="226" y="209" type="line"/>
      <point x="281" y="376" type="line"/>
      <point x="336" y="210" type="line"/>
      <point x="285" y="150" type="line"/>
    </contour>
  </outline>
</glyph>
<glyph name="A.003" format="2">
  <advance width="716"/>
  <outline>
    <contour>
      <point x="321" y="173" type="line"/>
      <point x="360" y="147" type="line"/>
      <point x="254" y="0" type="line"/>
      <point x="206" y="50"/>
      <point x="157" y="77"/>
      <point x="87" y="77" type="curve"/>
      <point x="39" y="11" type="line"/>
      <point x="0" y="37" type="line"/>
      <point x="42" y="120"/>
      <point x="92" y="184"/>
      <point x="192" y="184" type="curve"/>
      <point x="379" y="600" type="line"/>
      <point x="379" y="642"/>
      <point x="361" y="681"/>
      <point x="314" y="681" type="curve" smooth="yes"/>
      <point x="269" y="681"/>
      <point x="249" y="644"/>
      <point x="249" y="603" type="curve" smooth="yes"/>
      <point x="249" y="589"/>
      <point x="251" y="574"/>
      <point x="254" y="560" type="curve"/>
      <point x="213" y="542" type="line"/>
      <point x="203" y="566"/>
      <point x="196" y="592"/>
      <point x="196" y="619" type="curve" smooth="yes"/>
      <point x="196" y="706"/>
      <point x="266" y="750"/>
      <point x="347" y="750" type="curve" smooth="yes"/>
      <point x="400" y="750"/>
      <point x="477" y="723"/>
      <point x="508" y="678" type="curve"/>
      <point x="573" y="718" type="line"/>
      <point x="598" y="677" type="line"/>
      <point x="532" y="638" type="line"/>
      <point x="659" y="156" type="line"/>
      <point x="686" y="179" type="line"/>
      <point x="716" y="150" type="line"/>
      <point x="614" y="0" type="line"/>
      <point x="528" y="41" type="line"/>
      <point x="475" y="243" type="line"/>
      <point x="278" y="243" type="line"/>
      <point x="248" y="173" type="line"/>
      <point x="267" y="168"/>
      <point x="286" y="160"/>
      <point x="302" y="149" type="curve"/>
    </contour>
    <contour>
      <point x="326" y="349" type="line"/>
      <point x="447" y="349" type="line"/>
      <point x="401" y="523" type="line"/>
    </contour>
  </outline>
</glyph>
<glyph name="B.001" format="2">
  <advance width="347"/>
  <outline>
    <contour>
      <point x="36" y="574" type="line"/>
      <point x="36" y="603"/>
      <point x="49" y="651"/>
      <point x="82" y="672" type="curve" smooth="yes"/>
      <point x="117" y="694"/>
      <point x="151" y="700"/>
      <point x="183" y="700" type="curve" smooth="yes"/>
      <point x="245" y="700"/>
      <point x="355" y="666"/>
      <point x="355" y="564" type="curve" smooth="yes"/>
      <point x="355" y="463"/>
      <point x="303" y="422"/>
      <point x="272" y="405" type="curve"/>
      <point x="348" y="386"/>
      <point x="390" y="314"/>
      <point x="390" y="237" type="curve" smooth="yes"/>
      <point x="390" y="101"/>
      <point x="313" y="-1"/>
      <point x="183" y="-1" type="curve" smooth="yes"/>
      <point x="78" y="-1"/>
      <point x="46" y="64"/>
      <point x="29" y="104" type="curve" smooth="yes"/>
      <point x="12" y="144"/>
      <point x="3" y="153"/>
      <point x="-13" y="147" type="curve" smooth="yes"/>
      <point x="-26" y="142"/>
      <point x="-30" y="128"/>
      <point x="-24" y="111" type="curve"/>
      <point x="-42" y="106" type="line"/>
      <point x="-51" y="125"/>
      <point x="-63" y="161"/>
      <point x="-28" y="197" type="curve" smooth="yes"/>
      <point x="7" y="233"/>
      <point x="77" y="229"/>
      <point x="97" y="186" type="curve" smooth="yes"/>
      <point x="123" y="129"/>
      <point x="115" y="52"/>
      <point x="179" y="52" type="curve" smooth="yes"/>
      <point x="224" y="52"/>
      <point x="275" y="100"/>
      <point x="280" y="190" type="curve" smooth="yes"/>
      <point x="285" y="284"/>
      <point x="234" y="344"/>
      <point x="206" y="357" type="curve" smooth="yes"/>
      <point x="174" y="372"/>
      <point x="123" y="369"/>
      <point x="88" y="313" type="curve"/>
      <point x="79" y="307"/>
      <point x="68" y="308"/>
      <point x="59" y="313" type="curve"/>
      <point x="59" y="325"/>
      <point x="71" y="352"/>
      <point x="117" y="380" type="curve"/>
      <point x="88" y="386"/>
      <point x="41" y="425"/>
      <point x="49" y="474" type="curve" smooth="yes"/>
      <point x="55" y="513"/>
      <point x="70" y="543"/>
      <point x="117" y="543" type="curve" smooth="yes"/>
      <point x="153" y="543"/>
      <point x="163" y="516"/>
      <point x="163" y="498" type="curve" smooth="yes"/>
      <point x="163" y="490"/>
      <point x="150" y="449"/>
      <point x="89" y="467" type="curve"/>
      <point x="76" y="442"/>
      <point x="109" y="414"/>
      <point x="155" y="414" type="curve" smooth="yes"/>
      <point x="213" y="414"/>
      <point x="264" y="473"/>
      <point x="264" y="526" type="curve" smooth="yes"/>
      <point x="264" y="586"/>
      <point x="248" y="648"/>
      <point x="170" y="662" type="curve" smooth="yes"/>
      <point x="131" y="669"/>
      <point x="64" y="651"/>
      <point x="64" y="574" type="curve"/>
    </contour>
  </outline>
</glyph>
<glyph name="B.002" format="2">
  <advance width="347"/>
  <outline>
    <contour>
      <point x="-5" y="662" type="curve" smooth="yes"/>
      <point x="0" y="679"/>
      <point x="15" y="692"/>
      <point x="32" y="692" type="curve" smooth="yes"/>
      <point x="58" y="692"/>
      <point x="73" y="670"/>
      <point x="89" y="654" type="curve"/>
      <point x="117" y="682"/>
      <point x="159" y="704"/>
      <point x="205" y="704" type="curve" smooth="yes"/>
      <point x="229" y="704"/>
      <point x="254" y="702"/>
      <point x="270" y="688" type="curve" smooth="yes"/>
      <point x="294" y="667"/>
      <point x="305" y="649"/>
      <point x="310" y="614" type="curve" smooth="yes"/>
      <point x="313" y="596"/>
      <point x="338" y="576"/>
      <point x="338" y="541" type="curve" smooth="yes"/>
      <point x="338" y="482"/>
      <point x="313" y="449"/>
      <point x="292" y="412" type="curve"/>
      <point x="318" y="350"/>
      <point x="351" y="292"/>
      <point x="352" y="227" type="curve" smooth="yes"/>
      <point x="353" y="183"/>
      <point x="356" y="137"/>
      <point x="333" y="99" type="curve" smooth="yes"/>
      <point x="305" y="53"/>
      <point x="261" y="1"/>
      <point x="201" y="1" type="curve" smooth="yes"/>
      <point x="165" y="1"/>
      <point x="132" y="10"/>
      <point x="99" y="28" type="curve" smooth="yes"/>
      <point x="10" y="75"/>
      <point x="2" y="121"/>
      <point x="-5" y="191" type="curve" smooth="yes"/>
      <point x="-11" y="253"/>
      <point x="10" y="309"/>
      <point x="8" y="365" type="curve" smooth="yes"/>
      <point x="3" y="488" type="line" smooth="yes"/>
      <point x="1" y="526"/>
      <point x="15" y="546"/>
      <point x="8" y="580" type="curve" smooth="yes"/>
      <point x="5" y="594"/>
      <point x="-15" y="628"/>
    </contour>
    <contour>
      <point x="182" y="635" type="curve" smooth="yes"/>
      <point x="125" y="615"/>
      <point x="119" y="626"/>
      <point x="103" y="603" type="curve" smooth="yes"/>
      <point x="79" y="569"/>
      <point x="89" y="557"/>
      <point x="77" y="513" type="curve" smooth="yes"/>
      <point x="61" y="454"/>
      <point x="93" y="402"/>
      <point x="146" y="391" type="curve" smooth="yes"/>
      <point x="174" y="385"/>
      <point x="218" y="388"/>
      <point x="231" y="412" type="curve" smooth="yes"/>
      <point x="249" y="444"/>
      <point x="287" y="476"/>
      <point x="269" y="505" type="curve" smooth="yes"/>
      <point x="240" y="552"/>
      <point x="261" y="572"/>
      <point x="243" y="604" type="curve" smooth="yes"/>
      <point x="232" y="623"/>
      <point x="214" y="646"/>
    </contour>
    <contour>
      <point x="83" y="350" type="curve" smooth="yes"/>
      <point x="63" y="348"/>
      <point x="66" y="311"/>
      <point x="66" y="294" type="curve" smooth="yes"/>
      <point x="66" y="238"/>
      <point x="76" y="195"/>
      <point x="110" y="148" type="curve" smooth="yes"/>
      <point x="134" y="116"/>
      <point x="169" y="80"/>
      <point x="214" y="82" type="curve" smooth="yes"/>
      <point x="240" y="83"/>
      <point x="267" y="92"/>
      <point x="265" y="115" type="curve" smooth="yes"/>
      <point x="261" y="168"/>
      <point x="280" y="193"/>
      <point x="274" y="232" type="curve" smooth="yes"/>
      <point x="268" y="273"/>
      <point x="252" y="300"/>
      <point x="221" y="329" type="curve" smooth="yes"/>
      <point x="204" y="345"/>
      <point x="188" y="336"/>
      <point x="161" y="336" type="curve" smooth="yes"/>
      <point x="135" y="336"/>
      <point x="134" y="354"/>
    </contour>
  </outline>
</glyph>
<glyph name="C.001" format="2">
  <advance width="830"/>
  <outline>
    <contour>
      <point x="770" y="199" type="line"/>
      <point x="721" y="134"/>
      <point x="660" y="96"/>
      <point x="577" y="96" type="curve" smooth="yes"/>
      <point x="381" y="96"/>
      <point x="356" y="305"/>
      <point x="356" y="457" type="curve" smooth="yes"/>
      <point x="356" y="533"/>
      <point x="362" y="707"/>
      <point x="472" y="707" type="curve" smooth="yes"/>
      <point x="503" y="707"/>
      <point x="534" y="691"/>
      <point x="533" y="656" type="curve"/>
      <point x="493" y="627"/>
      <point x="470" y="585"/>
      <point x="470" y="535" type="curve" smooth="yes"/>
      <point x="470" y="448"/>
      <point x="536" y="396"/>
      <point x="619" y="396" type="curve" smooth="yes"/>
      <point x="715" y="396"/>
      <point x="782" y="463"/>
      <point x="782" y="559" type="curve" smooth="yes"/>
      <point x="782" y="721"/>
      <point x="604" y="757"/>
      <point x="475" y="757" type="curve" smooth="yes"/>
      <point x="207" y="757"/>
      <point x="20" y="643"/>
      <point x="20" y="355" type="curve" smooth="yes"/>
      <point x="20" y="102"/>
      <point x="205" y="-7"/>
      <point x="435" y="-7" type="curve" smooth="yes"/>
      <point x="582" y="-7"/>
      <point x="735" y="36"/>
      <point x="810" y="174" type="curve"/>
    </contour>
  </outline>
</glyph>
<glyph name="E.001" format="2">
  <advance width="540"/>
  <outline>
    <contour>
      <point x="20" y="661" type="curve" smooth="yes"/>
      <point x="20" y="600"/>
      <point x="69" y="551"/>
      <point x="130" y="551" type="curve" smooth="yes"/>
      <point x="191" y="551"/>
      <point x="240" y="600"/>
      <point x="240" y="661" type="curve" smooth="yes"/>
      <point x="240" y="722"/>
      <point x="190" y="770"/>
      <point x="130" y="770" type="curve" smooth="yes"/>
      <point x="70" y="770"/>
      <point x="20" y="722"/>
    </contour>
    <contour>
      <point x="300" y="661" type="curve" smooth="yes"/>
      <point x="300" y="600"/>
      <point x="349" y="551"/>
      <point x="410" y="551" type="curve" smooth="yes"/>
      <point x="471" y="551"/>
      <point x="520" y="600"/>
      <point x="520" y="661" type="curve" smooth="yes"/>
      <point x="520" y="722"/>
      <point x="470" y="770"/>
      <point x="410" y="770" type="curve" smooth="yes"/>
      <point x="350" y="770"/>
      <point x="300" y="722"/>
    </contour>
    <contour>
      <point x="20" y="378" type="curve" smooth="yes"/>
      <point x="20" y="317"/>
      <point x="69" y="268"/>
      <point x="130" y="268" type="curve" smooth="yes"/>
      <point x="191" y="268"/>
      <point x="240" y="317"/>
      <point x="240" y="378" type="curve" smooth="yes"/>
      <point x="240" y="439"/>
      <point x="190" y="487"/>
      <point x="130" y="487" type="curve" smooth="yes"/>
      <point x="70" y="487"/>
      <point x="20" y="439"/>
    </contour>
    <contour>
      <point x="300" y="378" type="curve" smooth="yes"/>
      <point x="300" y="343"/>
      <point x="387" y="336"/>
      <point x="410" y="336" type="curve" smooth="yes"/>
      <point x="433" y="336"/>
      <point x="520" y="343"/>
      <point x="520" y="378" type="curve" smooth="yes"/>
      <point x="520" y="412"/>
      <point x="432" y="419"/>
      <point x="410" y="419" type="curve" smooth="yes"/>
      <point x="388" y="419"/>
      <point x="300" y="412"/>
    </contour>
    <contour>
      <point x="20" y="90" type="curve" smooth="yes"/>
      <point x="20" y="29"/>
      <point x="69" y="-20"/>
      <point x="130" y="-20" type="curve" smooth="yes"/>
      <point x="191" y="-20"/>
      <point x="240" y="29"/>
      <point x="240" y="90" type="curve" smooth="yes"/>
      <point x="240" y="151"/>
      <point x="190" y="199"/>
      <point x="130" y="199" type="curve" smooth="yes"/>
      <point x="70" y="199"/>
      <point x="20" y="151"/>
    </contour>
    <contour>
      <point x="300" y="90" type="curve" smooth="yes"/>
      <point x="300" y="29"/>
      <point x="349" y="-20"/>
      <point x="410" y="-20" type="curve" smooth="yes"/>
      <point x="471" y="-20"/>
      <point x="520" y="29"/>
      <point x="520" y="90" type="curve" smooth="yes"/>
      <point x="520" y="151"/>
      <point x="470" y="199"/>
      <point x="410" y="199" type="curve" smooth="yes"/>
      <point x="350" y="199"/>
      <point x="300" y="151"/>
    </contour>
  </outline>
</glyph>
<glyph name="E.002" format="2">
  <advance width="864"/>
  <outline>
    <contour>
      <point x="96" y="301" type="curve" smooth="yes"/>
      <point x="787" y="301" type="line" smooth="yes"/>
      <point x="798" y="301"/>
      <point x="801" y="336"/>
      <point x="801" y="344" type="curve" smooth="yes"/>
      <point x="801" y="561"/>
      <point x="614" y="767"/>
      <point x="393" y="767" type="curve" smooth="yes"/>
      <point x="180" y="767"/>
      <point x="20" y="613"/>
      <point x="20" y="399" type="curve" smooth="yes"/>
      <point x="20" y="301"/>
      <point x="47" y="207"/>
      <point x="110" y="131" type="curve" smooth="yes"/>
      <point x="186" y="38"/>
      <point x="320" y="-33"/>
      <point x="441" y="-33" type="curve" smooth="yes"/>
      <point x="619" y="-33"/>
      <point x="844" y="77"/>
      <point x="844" y="281" type="curve" smooth="yes"/>
      <point x="844" y="287"/>
      <point x="842" y="314"/>
      <point x="833" y="314" type="curve" smooth="yes"/>
      <point x="823" y="314"/>
      <point x="819" y="264"/>
      <point x="816" y="255" type="curve" smooth="yes"/>
      <point x="806" y="222"/>
      <point x="777" y="185"/>
      <point x="753" y="161" type="curve" smooth="yes"/>
      <point x="672" y="80"/>
      <point x="558" y="43"/>
      <point x="445" y="43" type="curve" smooth="yes"/>
      <point x="254" y="43"/>
      <point x="44" y="210"/>
      <point x="44" y="409" type="curve" smooth="yes"/>
      <point x="44" y="580"/>
      <point x="235" y="691"/>
      <point x="389" y="691" type="curve" smooth="yes"/>
      <point x="536" y="691"/>
      <point x="682" y="589"/>
      <point x="745" y="458" type="curve" smooth="yes"/>
      <point x="750" y="448"/>
      <point x="775" y="385"/>
      <point x="773" y="377" type="curve"/>
      <point x="100" y="377" type="line" smooth="yes"/>
      <point x="89" y="377"/>
      <point x="86" y="342"/>
      <point x="86" y="334" type="curve" smooth="yes"/>
      <point x="86" y="328"/>
      <point x="87" y="301"/>
    </contour>
  </outline>
</glyph>
<glyph name="E.003" format="2">
  <advance width="556"/>
  <outline>
    <contour>
      <point x="77" y="10" type="line" smooth="yes"/>
      <point x="77" y="3"/>
      <point x="80" y="0"/>
      <point x="87" y="0" type="curve" smooth="yes"/>
      <point x="350" y="0" type="line" smooth="yes"/>
      <point x="357" y="0"/>
      <point x="360" y="3"/>
      <point x="360" y="10" type="curve" smooth="yes"/>
      <point x="360" y="90" type="line" smooth="yes"/>
      <point x="360" y="97"/>
      <point x="357" y="100"/>
      <point x="350" y="100" type="curve" smooth="yes"/>
      <point x="177" y="100" type="line"/>
      <point x="177" y="239" type="line"/>
      <point x="394" y="239" type="line" smooth="yes"/>
      <point x="401" y="239"/>
      <point x="404" y="242"/>
      <point x="404" y="249" type="curve" smooth="yes"/>
      <point x="404" y="329" type="line" smooth="yes"/>
      <point x="404" y="336"/>
      <point x="401" y="339"/>
      <point x="394" y="339" type="curve" smooth="yes"/>
      <point x="177" y="339" type="line"/>
      <point x="177" y="650" type="line"/>
      <point x="351" y="650" type="line" smooth="yes"/>
      <point x="358" y="650"/>
      <point x="361" y="653"/>
      <point x="361" y="660" type="curve" smooth="yes"/>
      <point x="361" y="740" type="line" smooth="yes"/>
      <point x="361" y="747"/>
      <point x="358" y="750"/>
      <point x="351" y="750" type="curve" smooth="yes"/>
      <point x="87" y="750" type="line" smooth="yes"/>
      <point x="80" y="750"/>
      <point x="77" y="747"/>
      <point x="77" y="740" type="curve" smooth="yes"/>
    </contour>
  </outline>
</glyph>
<glyph name="E.004" format="2">
  <advance width="482"/>
  <outline>
    <contour>
      <point x="374" y="221" type="line"/>
      <point x="369" y="140"/>
      <point x="339" y="62"/>
      <point x="262" y="62" type="curve" smooth="yes"/>
      <point x="186" y="62"/>
      <point x="187" y="192"/>
      <point x="191" y="311" type="curve"/>
      <point x="216" y="303"/>
      <point x="244" y="296"/>
      <point x="273" y="296" type="curve" smooth="yes"/>
      <point x="400" y="296"/>
      <point x="462" y="393"/>
      <point x="461" y="520" type="curve" smooth="yes"/>
      <point x="460" y="639"/>
      <point x="434" y="769"/>
      <point x="269" y="769" type="curve" smooth="yes"/>
      <point x="102" y="769"/>
      <point x="20" y="665"/>
      <point x="20" y="381" type="curve" smooth="yes"/>
      <point x="20" y="64"/>
      <point x="114" y="-17"/>
      <point x="233" y="-17" type="curve" smooth="yes"/>
      <point x="354" y="-17"/>
      <point x="418" y="74"/>
      <point x="430" y="223" type="curve"/>
    </contour>
    <contour>
      <point x="192" y="348" type="curve"/>
      <point x="192" y="362"/>
      <point x="193" y="376"/>
      <point x="193" y="389" type="curve" smooth="yes"/>
      <point x="193" y="526"/>
      <point x="173" y="710"/>
      <point x="248" y="710" type="curve" smooth="yes"/>
      <point x="289" y="710"/>
      <point x="292" y="628"/>
      <point x="295" y="528" type="curve" smooth="yes"/>
      <point x="300" y="374"/>
      <point x="263" y="342"/>
      <point x="236" y="342" type="curve" smooth="yes"/>
      <point x="224" y="342"/>
      <point x="207" y="345"/>
    </contour>
  </outline>
</glyph>
<glyph name="F.001" format="2">
  <advance width="222"/>
  <outline>
    <contour>
      <point x="75" y="0" type="line"/>
      <point x="75" y="544" type="line"/>
      <point x="21" y="556" type="line"/>
      <point x="38" y="576"/>
      <point x="75" y="584"/>
      <point x="75" y="617" type="curve" smooth="yes"/>
      <point x="75" y="632"/>
      <point x="69" y="648"/>
      <point x="69" y="664" type="curve" smooth="yes"/>
      <point x="69" y="703"/>
      <point x="88" y="750"/>
      <point x="133" y="750" type="curve" smooth="yes"/>
      <point x="149" y="750"/>
      <point x="164" y="740"/>
      <point x="179" y="740" type="curve" smooth="yes"/>
      <point x="188" y="740"/>
      <point x="184" y="750"/>
      <point x="193" y="750" type="curve" smooth="yes"/>
      <point x="201" y="750"/>
      <point x="201" y="738"/>
      <point x="201" y="733" type="curve" smooth="yes"/>
      <point x="201" y="705"/>
      <point x="195" y="648"/>
      <point x="156" y="648" type="curve" smooth="yes"/>
      <point x="141" y="648"/>
      <point x="129" y="658"/>
      <point x="114" y="658" type="curve" smooth="yes"/>
      <point x="108" y="658"/>
      <point x="99" y="655"/>
      <point x="99" y="647" type="curve" smooth="yes"/>
      <point x="99" y="635"/>
      <point x="116" y="631"/>
      <point x="125" y="629" type="curve" smooth="yes"/>
      <point x="135" y="627"/>
      <point x="143" y="625"/>
      <point x="149" y="616" type="curve" smooth="yes"/>
      <point x="171" y="583"/>
      <point x="167" y="421"/>
      <point x="167" y="382" type="curve" smooth="yes"/>
      <point x="167" y="271"/>
      <point x="132" y="101"/>
      <point x="85" y="0" type="curve"/>
    </contour>
  </outline>
  <guideline angle="90" x="75" y="0"/>
</glyph>
<glyph name="F.002" format="2">
  <advance width="668"/>
  <outline>
    <contour>
      <point x="126" y="0" type="curve" smooth="yes"/>
      <point x="100" y="0"/>
      <point x="73" y="13"/>
      <point x="62" y="37" type="curve"/>
      <point x="33" y="46"/>
      <point x="21" y="70"/>
      <point x="21" y="99" type="curve" smooth="yes"/>
      <point x="21" y="166"/>
      <point x="120" y="424"/>
      <point x="148" y="500" type="curve" smooth="yes"/>
      <point x="152" y="511"/>
      <point x="154" y="521"/>
      <point x="154" y="533" type="curve" smooth="yes"/>
      <point x="154" y="573"/>
      <point x="126" y="608"/>
      <point x="126" y="634" type="curve" smooth="yes"/>
      <point x="126" y="656"/>
      <point x="149" y="664"/>
      <point x="166" y="669" type="curve" smooth="yes"/>
      <point x="263" y="699"/>
      <point x="422" y="744"/>
      <point x="524" y="744" type="curve" smooth="yes"/>
      <point x="569" y="744"/>
      <point x="604" y="735"/>
      <point x="627" y="694" type="curve" smooth="yes"/>
      <point x="636" y="678"/>
      <point x="648" y="655"/>
      <point x="648" y="636" type="curve" smooth="yes"/>
      <point x="648" y="597"/>
      <point x="591" y="594"/>
      <point x="563" y="592" type="curve" smooth="yes"/>
      <point x="476" y="585"/>
      <point x="392" y="574"/>
      <point x="308" y="551" type="curve"/>
      <point x="279" y="464" type="line"/>
      <point x="288" y="456" type="line"/>
      <point x="331" y="466"/>
      <point x="377" y="477"/>
      <point x="422" y="477" type="curve" smooth="yes"/>
      <point x="471" y="477"/>
      <point x="488" y="458"/>
      <point x="500" y="413" type="curve" smooth="yes"/>
      <point x="503" y="402"/>
      <point x="507" y="390"/>
      <point x="507" y="378" type="curve" smooth="yes"/>
      <point x="507" y="345"/>
      <point x="440" y="339"/>
      <point x="417" y="334" type="curve" smooth="yes"/>
      <point x="234" y="296" type="line"/>
      <point x="216" y="224"/>
      <point x="192" y="81"/>
      <point x="166" y="20" type="curve" smooth="yes"/>
      <point x="159" y="4"/>
      <point x="142" y="0"/>
    </contour>
  </outline>
  <guideline angle="90" x="390" y="0"/>
</glyph>
<glyph name="F.003" format="2">
  <advance width="366"/>
  <outline>
    <contour>
      <point x="30" y="750" type="line" smooth="yes"/>
      <point x="23" y="750"/>
      <point x="20" y="747"/>
      <point x="20" y="740" type="curve" smooth="yes"/>
      <point x="20" y="10" type="line" smooth="yes"/>
      <point x="20" y="3"/>
      <point x="23" y="0"/>
      <point x="30" y="0" type="curve" smooth="yes"/>
      <point x="115" y="0" type="line" smooth="yes"/>
      <point x="122" y="0"/>
      <point x="125" y="3"/>
      <point x="125" y="10" type="curve" smooth="yes"/>
      <point x="125" y="400" type="line"/>
      <point x="336" y="400" type="line" smooth="yes"/>
      <point x="343" y="400"/>
      <point x="346" y="403"/>
      <point x="346" y="410" type="curve" smooth="yes"/>
      <point x="346" y="490" type="line" smooth="yes"/>
      <point x="346" y="497"/>
      <point x="343" y="500"/>
      <point x="336" y="500" type="curve" smooth="yes"/>
      <point x="125" y="500" type="line"/>
      <point x="125" y="643" type="line"/>
      <point x="292" y="643" type="line" smooth="yes"/>
      <point x="299" y="643"/>
      <point x="302" y="646"/>
      <point x="302" y="653" type="curve" smooth="yes"/>
      <point x="302" y="740" type="line" smooth="yes"/>
      <point x="302" y="747"/>
      <point x="299" y="750"/>
      <point x="292" y="750" type="curve" smooth="yes"/>
    </contour>
  </outline>
</glyph>
<glyph name="H.001" format="2">
  <advance width="574"/>
  <outline>
    <contour>
      <point x="20" y="750" type="line"/>
      <point x="34" y="0" type="line"/>
      <point x="160" y="0" type="line"/>
      <point x="158" y="75" type="line"/>
      <point x="427" y="75" type="line"/>
      <point x="428" y="0" type="line"/>
      <point x="554" y="0" type="line"/>
      <point x="540" y="750" type="line"/>
      <point x="415" y="750" type="line"/>
      <point x="417" y="610" type="line"/>
      <point x="148" y="610" type="line"/>
      <point x="146" y="750" type="line"/>
    </contour>
    <contour>
      <point x="152" y="385" type="line"/>
      <point x="150" y="514" type="line"/>
      <point x="419" y="514" type="line"/>
      <point x="421" y="385" type="line"/>
    </contour>
    <contour>
      <point x="156" y="170" type="line"/>
      <point x="154" y="289" type="line"/>
      <point x="423" y="289" type="line"/>
      <point x="425" y="170" type="line"/>
    </contour>
  </outline>
</glyph>
<glyph name="I.001" format="2">
  <advance width="223"/>
  <outline>
    <contour>
      <point x="20" y="0" type="line"/>
      <point x="203" y="0" type="line"/>
      <point x="170" y="270" type="line" smooth="yes"/>
      <point x="164" y="323"/>
      <point x="153" y="352"/>
      <point x="153" y="405" type="curve" smooth="yes"/>
      <point x="153" y="450"/>
      <point x="164" y="475"/>
      <point x="170" y="520" type="curve" smooth="yes"/>
      <point x="203" y="750" type="line"/>
      <point x="20" y="750" type="line"/>
      <point x="53" y="520" type="line" smooth="yes"/>
      <point x="59" y="475"/>
      <point x="70" y="450"/>
      <point x="70" y="405" type="curve" smooth="yes"/>
      <point x="70" y="352"/>
      <point x="59" y="323"/>
      <point x="53" y="270" type="curve" smooth="yes"/>
    </contour>
  </outline>
</glyph>
<glyph name="I.002" format="2">
  <advance width="378"/>
  <outline>
    <contour>
      <point x="20" y="719" type="line"/>
      <point x="126" y="719" type="line"/>
      <point x="126" y="31" type="line"/>
      <point x="20" y="31" type="line"/>
      <point x="20" y="0" type="line"/>
      <point x="358" y="0" type="line"/>
      <point x="358" y="31" type="line"/>
      <point x="252" y="31" type="line"/>
      <point x="252" y="719" type="line"/>
      <point x="358" y="719" type="line"/>
      <point x="358" y="750" type="line"/>
      <point x="20" y="750" type="line"/>
    </contour>
  </outline>
</glyph>
<glyph name="I.003" format="2">
  <advance width="584"/>
  <outline>
    <contour>
      <point x="185" y="564" type="curve" smooth="yes"/>
      <point x="185" y="186" type="line" smooth="yes"/>
      <point x="185" y="173"/>
      <point x="178" y="166"/>
      <point x="165" y="166" type="curve" smooth="yes"/>
      <point x="20" y="166" type="line"/>
      <point x="20" y="0" type="line"/>
      <point x="564" y="0" type="line"/>
      <point x="564" y="166" type="line"/>
      <point x="419" y="166" type="line" smooth="yes"/>
      <point x="406" y="166"/>
      <point x="399" y="173"/>
      <point x="399" y="186" type="curve" smooth="yes"/>
      <point x="399" y="564" type="line" smooth="yes"/>
      <point x="399" y="577"/>
      <point x="406" y="584"/>
      <point x="419" y="584" type="curve" smooth="yes"/>
      <point x="564" y="584" type="line"/>
      <point x="564" y="750" type="line"/>
      <point x="20" y="750" type="line"/>
      <point x="20" y="584" type="line"/>
      <point x="165" y="584" type="line" smooth="yes"/>
      <point x="178" y="584"/>
      <point x="185" y="577"/>
    </contour>
  </outline>
</glyph>
<glyph name="J.002" format="2">
  <advance width="600"/>
  <outline>
    <contour>
      <point x="507" y="11" type="curve"/>
      <point x="475" y="-29" type="line"/>
      <point x="457" y="-23"/>
      <point x="437" y="-20"/>
      <point x="419" y="-20" type="curve" smooth="yes"/>
      <point x="327" y="-20"/>
      <point x="276" y="-94"/>
      <point x="190" y="-94" type="curve" smooth="yes"/>
      <point x="79" y="-94"/>
      <point x="-6" y="-38"/>
      <point x="-8" y="72" type="curve" smooth="yes"/>
      <point x="-10" y="142"/>
      <point x="36" y="198"/>
      <point x="99" y="198" type="curve"/>
      <point x="157" y="198"/>
      <point x="201" y="158"/>
      <point x="202" y="108" type="curve" smooth="yes"/>
      <point x="203" y="62"/>
      <point x="179" y="39"/>
      <point x="180" y="10" type="curve" smooth="yes"/>
      <point x="180" y="-11"/>
      <point x="195" y="-24"/>
      <point x="209" y="-24" type="curve"/>
      <point x="281" y="-24"/>
      <point x="381" y="124"/>
      <point x="378" y="302" type="curve" smooth="yes"/>
      <point x="376" y="400"/>
      <point x="351" y="531"/>
      <point x="257" y="629" type="curve" smooth="yes"/>
      <point x="203" y="686"/>
      <point x="225" y="763"/>
      <point x="294" y="763" type="curve" smooth="yes"/>
      <point x="343" y="763"/>
      <point x="390" y="710"/>
      <point x="419" y="653" type="curve"/>
      <point x="446" y="710"/>
      <point x="491" y="763"/>
      <point x="540" y="763" type="curve" smooth="yes"/>
      <point x="609" y="763"/>
      <point x="633" y="686"/>
      <point x="581" y="629" type="curve" smooth="yes"/>
      <point x="491" y="531"/>
      <point x="470" y="400"/>
      <point x="472" y="302" type="curve" smooth="yes"/>
      <point x="474" y="187"/>
      <point x="487" y="86"/>
    </contour>
  </outline>
</glyph>
<glyph name="L.001" format="2">
  <advance width="285"/>
  <outline>
    <contour>
      <point x="182" y="750" type="line"/>
      <point x="20" y="712" type="line"/>
      <point x="20" y="97" type="line"/>
      <point x="115" y="0" type="line"/>
      <point x="147" y="58"/>
      <point x="214" y="144"/>
      <point x="265" y="186" type="curve"/>
      <point x="235" y="217" type="line"/>
      <point x="210" y="192" type="line"/>
      <point x="182" y="221" type="line"/>
    </contour>
  </outline>
</glyph>
<glyph name="L.002" format="2">
  <advance width="575"/>
  <outline>
    <contour>
      <point x="67" y="0" type="curve"/>
      <point x="283" y="0" type="line" smooth="yes"/>
      <point x="354" y="0"/>
      <point x="429" y="33"/>
      <point x="541" y="161" type="curve" smooth="yes"/>
      <point x="611" y="242"/>
      <point x="514" y="336"/>
      <point x="435" y="263" type="curve" smooth="yes"/>
      <point x="314" y="151" type="line"/>
      <point x="245" y="151" type="line"/>
      <point x="245" y="576" type="line"/>
      <point x="304" y="594"/>
      <point x="316" y="607"/>
      <point x="316" y="631" type="curve" smooth="yes"/>
      <point x="316" y="699" type="line" smooth="yes"/>
      <point x="316" y="733"/>
      <point x="292" y="750"/>
      <point x="237" y="750" type="curve"/>
      <point x="126" y="750" type="line" smooth="yes"/>
      <point x="71" y="750"/>
      <point x="47" y="733"/>
      <point x="47" y="699" type="curve" smooth="yes"/>
      <point x="47" y="631" type="line" smooth="yes"/>
      <point x="47" y="607"/>
      <point x="60" y="594"/>
      <point x="112" y="576" type="curve"/>
      <point x="112" y="151" type="line"/>
      <point x="67" y="151" type="line" smooth="yes"/>
      <point x="-9" y="151"/>
      <point x="-9" y="0"/>
    </contour>
  </outline>
</glyph>
<glyph name="M.001" format="2">
  <advance width="719"/>
  <outline>
    <contour>
      <point x="132" y="-41" type="line"/>
      <point x="232" y="403" type="line"/>
      <point x="331" y="129" type="line"/>
      <point x="363" y="129" type="line"/>
      <point x="467" y="411" type="line"/>
      <point x="565" y="-56" type="line"/>
      <point x="699" y="55" type="line"/>
      <point x="519" y="810" type="line"/>
      <point x="495" y="810" type="line"/>
      <point x="382" y="505" type="line"/>
      <point x="369" y="505" type="line"/>
      <point x="236" y="810" type="line"/>
      <point x="212" y="810" type="line"/>
      <point x="20" y="42" type="line"/>
    </contour>
  </outline>
</glyph>
<glyph name="M.002" format="2">
  <advance width="1283"/>
  <image fileName="M_1_po.png" xScale="6.067242106660219" yScale="6.067242106660219" xOffset="-41.14768017782501" yOffset="-123.66390322748839"/>
  <outline>
    <contour>
      <point x="1057.283781316518" y="581" type="line"/>
      <point x="1057.283781316518" y="56" type="line"/>
      <point x="1156.283781316518" y="-13" type="line"/>
      <point x="1253.283781316518" y="77" type="line"/>
      <point x="1202.283781316518" y="126" type="line"/>
      <point x="1202.283781316518" y="651" type="line"/>
      <point x="1220.283781316518" y="684" type="line"/>
      <point x="1032.283781316518" y="779" type="line"/>
      <point x="919.2837813165178" y="670" type="line"/>
    </contour>
    <contour>
      <point x="793.2837813165178" y="588" type="line"/>
      <point x="793.2837813165178" y="0" type="line"/>
      <point x="936.2837813165178" y="0" type="line"/>
      <point x="936.2837813165178" y="683" type="line"/>
      <point x="746.2837813165178" y="790" type="line"/>
      <point x="669.2837813165178" y="703" type="line"/>
      <point x="628.2837813165178" y="703" type="line"/>
      <point x="628.2837813165178" y="659" type="line"/>
      <point x="684.2837813165178" y="659" type="line"/>
    </contour>
    <contour>
      <point x="708.2837813165178" y="209" type="line"/>
      <point x="994.2837813165178" y="209" type="line"/>
      <point x="994.2837813165178" y="322" type="line"/>
      <point x="708.2837813165178" y="322" type="line"/>
    </contour>
    <contour>
      <point x="655.2837813165178" y="750" type="line"/>
      <point x="574.2837813165178" y="750" type="line"/>
      <point x="422.2837813165178" y="750"/>
      <point x="271.2837813165178" y="898"/>
      <point x="271.2837813165178" y="898" type="curve"/>
      <point x="17.283781316517775" y="689" type="line"/>
      <point x="-19.716218683482225" y="526"/>
      <point x="92.28378131651777" y="404"/>
      <point x="172.28378131651777" y="373" type="curve"/>
      <point x="293.2837813165178" y="457" type="line"/>
      <point x="189.28378131651777" y="529"/>
      <point x="95.28378131651777" y="713"/>
      <point x="166.28378131651777" y="758" type="curve"/>
      <point x="260.2837813165178" y="664"/>
      <point x="388.2837813165178" y="640"/>
      <point x="492.2837813165178" y="661" type="curve"/>
      <point x="492.2837813165178" y="171" type="line"/>
      <point x="404.2837813165178" y="171" type="line"/>
      <point x="302.2837813165178" y="50" type="line"/>
      <point x="309.2837813165178" y="22" type="line"/>
      <point x="430.2837813165178" y="31"/>
      <point x="580.2837813165178" y="1"/>
      <point x="642.2837813165178" y="-28" type="curve"/>
      <point x="720.2837813165178" y="101" type="line"/>
      <point x="655.2837813165178" y="144" type="line"/>
    </contour>
  </outline>
</glyph>
<glyph name="N.001" format="2">
  <advance width="600"/>
  <outline>
    <contour>
      <point x="-16" y="702" type="line"/>
      <point x="-16" y="702" type="line"/>
      <point x="275" y="702" type="line"/>
      <point x="488" y="546" type="line"/>
      <point x="488" y="702" type="line"/>
      <point x="711" y="702" type="line"/>
      <point x="836" y="612" type="line"/>
      <point x="836" y="3" type="line"/>
      <point x="616" y="3" type="line"/>
      <point x="499" y="109" type="line"/>
      <point x="382" y="276" type="line"/>
      <point x="382" y="3" type="line"/>
      <point x="164" y="3" type="line"/>
      <point x="54" y="115" type="line"/>
      <point x="54" y="500" type="line"/>
      <point x="-16" y="500" type="line"/>
    </contour>
  </outline>
</glyph>
<glyph name="P.001" format="2">
  <advance width="588"/>
  <outline>
    <contour>
      <point x="269" y="154" type="curve" smooth="yes"/>
      <point x="278" y="154"/>
      <point x="310" y="124"/>
      <point x="358" y="124" type="curve" smooth="yes"/>
      <point x="511" y="124"/>
      <point x="568" y="304"/>
      <point x="568" y="430" type="curve" smooth="yes"/>
      <point x="568" y="458" type="line" smooth="yes"/>
      <point x="568" y="580"/>
      <point x="543" y="752"/>
      <point x="386" y="752" type="curve" smooth="yes"/>
      <point x="338" y="752"/>
      <point x="295" y="732"/>
      <point x="263" y="696" type="curve"/>
      <point x="263" y="711"/>
      <point x="271" y="750"/>
      <point x="247" y="750" type="curve" smooth="yes"/>
      <point x="74" y="750" type="line" smooth="yes"/>
      <point x="64" y="750"/>
      <point x="58" y="744"/>
      <point x="58" y="734" type="curve" smooth="yes"/>
      <point x="58" y="157" type="line" smooth="yes"/>
      <point x="58" y="71"/>
      <point x="1" y="54"/>
      <point x="1" y="21" type="curve" smooth="yes"/>
      <point x="1" y="4"/>
      <point x="14" y="-5"/>
      <point x="30" y="-5" type="curve" smooth="yes"/>
      <point x="34" y="-5"/>
      <point x="37" y="-5"/>
      <point x="41" y="-4" type="curve" smooth="yes"/>
      <point x="133" y="15"/>
      <point x="198" y="65"/>
      <point x="251" y="141" type="curve" smooth="yes"/>
      <point x="255" y="147"/>
      <point x="261" y="154"/>
    </contour>
    <contour>
      <point x="304" y="222" type="curve" smooth="yes"/>
      <point x="281" y="222"/>
      <point x="261" y="242"/>
      <point x="261" y="265" type="curve" smooth="yes"/>
      <point x="261" y="621" type="line" smooth="yes"/>
      <point x="261" y="645"/>
      <point x="280" y="664"/>
      <point x="304" y="664" type="curve" smooth="yes"/>
      <point x="328" y="664"/>
      <point x="346" y="644"/>
      <point x="346" y="621" type="curve" smooth="yes"/>
      <point x="346" y="265" type="line" smooth="yes"/>
      <point x="346" y="242"/>
      <point x="327" y="222"/>
    </contour>
  </outline>
</glyph>
<glyph name="P.002" format="2">
  <advance width="614"/>
  <outline>
    <contour>
      <point x="123" y="750" type="line"/>
      <point x="123" y="0" type="line"/>
      <point x="240" y="0" type="line"/>
      <point x="240" y="750" type="line"/>
    </contour>
    <contour>
      <point x="219" y="676" type="line"/>
      <point x="240" y="676" type="line" smooth="yes"/>
      <point x="302" y="676"/>
      <point x="323" y="611"/>
      <point x="323" y="495" type="curve" smooth="yes"/>
      <point x="323" y="379"/>
      <point x="302" y="314"/>
      <point x="240" y="314" type="curve" smooth="yes"/>
      <point x="217" y="314" type="line"/>
      <point x="217" y="240" type="line"/>
      <point x="227" y="240" type="line" smooth="yes"/>
      <point x="356" y="240"/>
      <point x="440" y="309"/>
      <point x="440" y="495" type="curve" smooth="yes"/>
      <point x="440" y="681"/>
      <point x="356" y="750"/>
      <point x="227" y="750" type="curve" smooth="yes"/>
      <point x="215" y="750" type="line"/>
    </contour>
  </outline>
</glyph>
<glyph name="Q.002" format="2">
  <advance width="879"/>
  <outline>
    <contour>
      <point x="365" y="818" type="curve"/>
      <point x="390" y="717" type="line"/>
      <point x="436" y="754"/>
      <point x="492" y="774"/>
      <point x="551" y="774" type="curve" smooth="yes"/>
      <point x="753" y="774"/>
      <point x="859" y="598"/>
      <point x="859" y="413" type="curve" smooth="yes"/>
      <point x="859" y="266"/>
      <point x="805" y="133"/>
      <point x="672" y="59" type="curve"/>
      <point x="732" y="26"/>
      <point x="794" y="0"/>
      <point x="859" y="-22" type="curve"/>
      <point x="815" y="-154" type="line"/>
      <point x="702" y="-117"/>
      <point x="593" y="-66"/>
      <point x="498" y="6" type="curve"/>
      <point x="490" y="5" type="line" smooth="yes"/>
      <point x="467" y="3"/>
      <point x="444" y="2"/>
      <point x="421" y="2" type="curve" smooth="yes"/>
      <point x="188" y="2"/>
      <point x="20" y="187"/>
      <point x="20" y="416" type="curve" smooth="yes"/>
      <point x="20" y="636"/>
      <point x="159" y="766"/>
    </contour>
    <contour>
      <point x="356" y="150" type="curve"/>
      <point x="299" y="232"/>
      <point x="268" y="325"/>
      <point x="268" y="425" type="curve" smooth="yes"/>
      <point x="268" y="509"/>
      <point x="291" y="596"/>
      <point x="341" y="664" type="curve"/>
      <point x="224" y="620"/>
      <point x="160" y="542"/>
      <point x="160" y="416" type="curve" smooth="yes"/>
      <point x="160" y="291"/>
      <point x="232" y="181"/>
    </contour>
    <contour>
      <point x="537" y="156" type="curve"/>
      <point x="666" y="190"/>
      <point x="719" y="285"/>
      <point x="719" y="413" type="curve" smooth="yes"/>
      <point x="719" y="519"/>
      <point x="673" y="634"/>
      <point x="551" y="634" type="curve" smooth="yes"/>
      <point x="447" y="634"/>
      <point x="408" y="509"/>
      <point x="408" y="425" type="curve" smooth="yes"/>
      <point x="408" y="318"/>
      <point x="460" y="228"/>
    </contour>
  </outline>
</glyph>
<glyph name="R.002" format="2">
  <advance width="398"/>
  <outline>
    <contour>
      <point x="20" y="0" type="line"/>
      <point x="137" y="0" type="line"/>
      <point x="139" y="221" type="line"/>
      <point x="251" y="222"/>
      <point x="162" y="0"/>
      <point x="333" y="0" type="curve" smooth="yes"/>
      <point x="371" y="0" type="line"/>
      <point x="371" y="100" type="line"/>
      <point x="276" y="128"/>
      <point x="348" y="209"/>
      <point x="246" y="258" type="curve"/>
      <point x="338" y="289"/>
      <point x="377" y="397"/>
      <point x="377" y="486" type="curve" smooth="yes"/>
      <point x="377" y="635"/>
      <point x="284" y="750"/>
      <point x="129" y="750" type="curve" smooth="yes"/>
      <point x="20" y="750" type="line"/>
    </contour>
    <contour>
      <point x="138" y="340" type="curve"/>
      <point x="138" y="624" type="line"/>
      <point x="217" y="624"/>
      <point x="259" y="554"/>
      <point x="259" y="482" type="curve" smooth="yes"/>
      <point x="259" y="410"/>
      <point x="217" y="340"/>
    </contour>
  </outline>
</glyph>
<glyph name="S.001" format="2">
  <advance width="958"/>
  <image fileName="S_2_sj.jpg" xScale="0.36110461337003935" yScale="0.36110461337003935" xOffset="-5.382840634769876" yOffset="-91.58455023942379"/>
  <outline>
    <contour>
      <point x="10" y="-41" type="curve"/>
      <point x="70" y="-17"/>
      <point x="104" y="-3"/>
      <point x="248" y="-3" type="curve" smooth="yes"/>
      <point x="445" y="-3"/>
      <point x="471" y="-30"/>
      <point x="575" y="-30" type="curve" smooth="yes"/>
      <point x="666" y="-30"/>
      <point x="696" y="27"/>
      <point x="696" y="61" type="curve"/>
      <point x="696" y="115"/>
      <point x="664" y="178"/>
      <point x="440" y="178" type="curve" smooth="yes"/>
      <point x="216" y="178"/>
      <point x="52" y="38"/>
    </contour>
    <contour>
      <point x="948" y="783" type="curve"/>
      <point x="902" y="763"/>
      <point x="876" y="752"/>
      <point x="766" y="752" type="curve" smooth="yes"/>
      <point x="615" y="752"/>
      <point x="595" y="774"/>
      <point x="516" y="774" type="curve" smooth="yes"/>
      <point x="446" y="774"/>
      <point x="423" y="728"/>
      <point x="423" y="700" type="curve"/>
      <point x="423" y="655"/>
      <point x="447" y="604"/>
      <point x="619" y="604" type="curve" smooth="yes"/>
      <point x="791" y="604"/>
      <point x="916" y="719"/>
    </contour>
    <contour>
      <point x="454" y="647" type="curve"/>
      <point x="448" y="685" type="line"/>
      <point x="435" y="690"/>
      <point x="389" y="697"/>
      <point x="342" y="653" type="curve" smooth="yes"/>
      <point x="281" y="596"/>
      <point x="334" y="500"/>
      <point x="370" y="464" type="curve" smooth="yes"/>
      <point x="433" y="402"/>
      <point x="646" y="209"/>
      <point x="679" y="69" type="curve"/>
      <point x="679" y="69"/>
      <point x="714" y="66"/>
      <point x="748" y="98" type="curve" smooth="yes"/>
      <point x="822" y="167"/>
      <point x="778" y="276"/>
      <point x="735" y="340" type="curve" smooth="yes"/>
      <point x="656" y="458"/>
      <point x="561" y="559"/>
    </contour>
  </outline>
</glyph>
<glyph name="T.001" format="2">
  <advance width="1112"/>
  <outline>
    <contour>
      <point x="561" y="765" type="curve" smooth="yes"/>
      <point x="715" y="765"/>
      <point x="901" y="734"/>
      <point x="1036" y="653" type="curve" smooth="yes"/>
      <point x="1066" y="635"/>
      <point x="1112" y="605"/>
      <point x="1112" y="565" type="curve" smooth="yes"/>
      <point x="1112" y="536"/>
      <point x="1086" y="516"/>
      <point x="1061" y="508" type="curve" smooth="yes"/>
      <point x="1025" y="496"/>
      <point x="989" y="495"/>
      <point x="955" y="477" type="curve" smooth="yes"/>
      <point x="928" y="463"/>
      <point x="879" y="428"/>
      <point x="849" y="428" type="curve" smooth="yes"/>
      <point x="829" y="428"/>
      <point x="812" y="447"/>
      <point x="812" y="466" type="curve" smooth="yes"/>
      <point x="812" y="528"/>
      <point x="951" y="510"/>
      <point x="951" y="580" type="curve" smooth="yes"/>
      <point x="951" y="630"/>
      <point x="890" y="639"/>
      <point x="853" y="639" type="curve" smooth="yes"/>
      <point x="825" y="639"/>
      <point x="796" y="635"/>
      <point x="771" y="623" type="curve" smooth="yes"/>
      <point x="681" y="580"/>
      <point x="648" y="542"/>
      <point x="642" y="436" type="curve" smooth="yes"/>
      <point x="638" y="360"/>
      <point x="634" y="284"/>
      <point x="634" y="208" type="curve" smooth="yes"/>
      <point x="634" y="186"/>
      <point x="633" y="97"/>
      <point x="652" y="83" type="curve" smooth="yes"/>
      <point x="673" y="68"/>
      <point x="721" y="63"/>
      <point x="721" y="32" type="curve" smooth="yes"/>
      <point x="721" y="5"/>
      <point x="702" y="-14"/>
      <point x="675" y="-14" type="curve" smooth="yes"/>
      <point x="667" y="-14"/>
      <point x="660" y="-13"/>
      <point x="652" y="-11" type="curve" smooth="yes"/>
      <point x="619" y="-3"/>
      <point x="587" y="3"/>
      <point x="553" y="3" type="curve" smooth="yes"/>
      <point x="524" y="3"/>
      <point x="497" y="-15"/>
      <point x="469" y="-15" type="curve" smooth="yes"/>
      <point x="450" y="-15"/>
      <point x="421" y="0"/>
      <point x="421" y="22" type="curve" smooth="yes"/>
      <point x="421" y="70"/>
      <point x="494" y="62"/>
      <point x="507" y="95" type="curve" smooth="yes"/>
      <point x="513" y="111"/>
      <point x="514" y="180"/>
      <point x="514" y="199" type="curve" smooth="yes"/>
      <point x="514" y="362"/>
      <point x="521" y="625"/>
      <point x="291" y="625" type="curve" smooth="yes"/>
      <point x="253" y="625"/>
      <point x="186" y="612"/>
      <point x="186" y="562" type="curve" smooth="yes"/>
      <point x="186" y="523"/>
      <point x="230" y="509"/>
      <point x="261" y="505" type="curve" smooth="yes"/>
      <point x="284" y="502"/>
      <point x="350" y="486"/>
      <point x="350" y="456" type="curve" smooth="yes"/>
      <point x="350" y="435"/>
      <point x="324" y="418"/>
      <point x="305" y="418" type="curve"/>
      <point x="302" y="418" type="line"/>
      <point x="268" y="421"/>
      <point x="172" y="484"/>
      <point x="106" y="488" type="curve" smooth="yes"/>
      <point x="76" y="490"/>
      <point x="0" y="496"/>
      <point x="0" y="538" type="curve" smooth="yes"/>
      <point x="0" y="548"/>
      <point x="4" y="557"/>
      <point x="9" y="565" type="curve" smooth="yes"/>
      <point x="83" y="693"/>
      <point x="423" y="765"/>
    </contour>
  </outline>
</glyph>
<glyph name="T.002" format="2">
  <advance width="600"/>
  <outline>
    <contour>
      <point x="452" y="480" type="line"/>
      <point x="426" y="521"/>
      <point x="426" y="599"/>
      <point x="434" y="660" type="curve" smooth="yes"/>
      <point x="436" y="683"/>
      <point x="419" y="700"/>
      <point x="397" y="696" type="curve" smooth="yes"/>
      <point x="300" y="684"/>
      <point x="127" y="689"/>
      <point x="94" y="703" type="curve" smooth="yes"/>
      <point x="67" y="714"/>
      <point x="42" y="692"/>
      <point x="50" y="671" type="curve" smooth="yes"/>
      <point x="80" y="588"/>
      <point x="103" y="521"/>
      <point x="112" y="390" type="curve"/>
      <point x="152" y="392" type="line"/>
      <point x="143" y="529"/>
      <point x="118" y="602"/>
      <point x="88" y="685" type="curve" smooth="yes"/>
      <point x="86" y="690"/>
      <point x="78" y="667"/>
      <point x="78" y="667" type="curve"/>
      <point x="121" y="648"/>
      <point x="301" y="644"/>
      <point x="402" y="656" type="curve" smooth="yes"/>
      <point x="404" y="656" type="line" smooth="yes"/>
      <point x="403" y="656"/>
      <point x="394" y="665"/>
      <point x="394" y="664" type="curve" smooth="yes"/>
      <point x="386" y="600"/>
      <point x="386" y="511"/>
      <point x="418" y="458" type="curve"/>
    </contour>
    <contour>
      <point x="629" y="174" type="line"/>
      <point x="617" y="50"/>
      <point x="570" y="15"/>
      <point x="514" y="15" type="curve" smooth="yes"/>
      <point x="433" y="15"/>
      <point x="353" y="121"/>
      <point x="328" y="195" type="curve" smooth="yes"/>
      <point x="281" y="331"/>
      <point x="262" y="479"/>
      <point x="283" y="615" type="curve"/>
      <point x="243" y="621" type="line"/>
      <point x="222" y="479"/>
      <point x="241" y="323"/>
      <point x="290" y="181" type="curve" smooth="yes"/>
      <point x="319" y="99"/>
      <point x="409" y="-25"/>
      <point x="514" y="-25" type="curve" smooth="yes"/>
      <point x="588" y="-25"/>
      <point x="655" y="22"/>
      <point x="669" y="170" type="curve"/>
    </contour>
  </outline>
</glyph>
<glyph name="U.001" format="2">
  <advance width="807"/>
  <outline>
    <contour>
      <point x="787" y="730" type="curve" smooth="yes"/>
      <point x="787" y="744"/>
      <point x="780" y="750"/>
      <point x="766" y="750" type="curve" smooth="yes"/>
      <point x="551" y="750" type="line" smooth="yes"/>
      <point x="537" y="750"/>
      <point x="530" y="744"/>
      <point x="530" y="730" type="curve" smooth="yes"/>
      <point x="530" y="714"/>
      <point x="536" y="711"/>
      <point x="550" y="708" type="curve" smooth="yes"/>
      <point x="565" y="705"/>
      <point x="579" y="706"/>
      <point x="593" y="701" type="curve" smooth="yes"/>
      <point x="637" y="685"/>
      <point x="634" y="622"/>
      <point x="634" y="584" type="curve" smooth="yes"/>
      <point x="634" y="279" type="line" smooth="yes"/>
      <point x="634" y="234"/>
      <point x="633" y="165"/>
      <point x="609" y="125" type="curve" smooth="yes"/>
      <point x="571" y="62"/>
      <point x="498" y="36"/>
      <point x="427" y="36" type="curve" smooth="yes"/>
      <point x="272" y="36"/>
      <point x="233" y="130"/>
      <point x="233" y="265" type="curve" smooth="yes"/>
      <point x="233" y="627" type="line" smooth="yes"/>
      <point x="233" y="708"/>
      <point x="247" y="696"/>
      <point x="314" y="707" type="curve" smooth="yes"/>
      <point x="328" y="709"/>
      <point x="334" y="715"/>
      <point x="334" y="730" type="curve" smooth="yes"/>
      <point x="334" y="744"/>
      <point x="328" y="750"/>
      <point x="314" y="750" type="curve" smooth="yes"/>
      <point x="40" y="750" type="line" smooth="yes"/>
      <point x="26" y="750"/>
      <point x="20" y="744"/>
      <point x="20" y="730" type="curve" smooth="yes"/>
      <point x="20" y="715"/>
      <point x="26" y="710"/>
      <point x="40" y="708" type="curve" smooth="yes"/>
      <point x="108" y="697"/>
      <point x="120" y="708"/>
      <point x="120" y="627" type="curve" smooth="yes"/>
      <point x="120" y="274" type="line" smooth="yes"/>
      <point x="120" y="92"/>
      <point x="200" y="-14"/>
      <point x="395" y="-14" type="curve" smooth="yes"/>
      <point x="608" y="-14"/>
      <point x="683" y="93"/>
      <point x="683" y="289" type="curve" smooth="yes"/>
      <point x="683" y="584" type="line" smooth="yes"/>
      <point x="683" y="621"/>
      <point x="679" y="684"/>
      <point x="722" y="699" type="curve" smooth="yes"/>
      <point x="737" y="704"/>
      <point x="752" y="704"/>
      <point x="767" y="707" type="curve" smooth="yes"/>
      <point x="781" y="710"/>
      <point x="787" y="715"/>
    </contour>
  </outline>
</glyph>
<glyph name="U.002" format="2">
  <advance width="1086"/>
  <outline>
    <contour>
      <point x="30" y="767" type="line"/>
      <point x="110" y="756"/>
      <point x="190" y="750"/>
      <point x="271" y="750" type="curve" smooth="yes"/>
      <point x="347" y="750"/>
      <point x="423" y="755"/>
      <point x="498" y="767" type="curve"/>
      <point x="498" y="357" type="line"/>
      <point x="506" y="338"/>
      <point x="530" y="332"/>
      <point x="548" y="332" type="curve" smooth="yes"/>
      <point x="567" y="332"/>
      <point x="591" y="338"/>
      <point x="600" y="357" type="curve"/>
      <point x="600" y="767" type="line"/>
      <point x="669" y="755"/>
      <point x="738" y="750"/>
      <point x="808" y="750" type="curve" smooth="yes"/>
      <point x="879" y="750"/>
      <point x="951" y="756"/>
      <point x="1021" y="767" type="curve"/>
      <point x="1033" y="727"/>
      <point x="1039" y="685"/>
      <point x="1039" y="643" type="curve" smooth="yes"/>
      <point x="1039" y="555"/>
      <point x="1017" y="468"/>
      <point x="996" y="383" type="curve"/>
      <point x="1066" y="242" type="line"/>
      <point x="1066" y="-17" type="line"/>
      <point x="987" y="-6"/>
      <point x="908" y="0"/>
      <point x="829" y="0" type="curve" smooth="yes"/>
      <point x="754" y="0"/>
      <point x="679" y="-5"/>
      <point x="605" y="-17" type="curve"/>
      <point x="643" y="148" type="line"/>
      <point x="579" y="11"/>
      <point x="469" y="-25"/>
      <point x="325" y="-25" type="curve" smooth="yes"/>
      <point x="213" y="-25"/>
      <point x="77" y="17"/>
      <point x="77" y="151" type="curve" smooth="yes"/>
      <point x="77" y="227"/>
      <point x="86" y="307"/>
      <point x="91" y="383" type="curve"/>
      <point x="68" y="426"/>
      <point x="44" y="468"/>
      <point x="20" y="510" type="curve"/>
    </contour>
  </outline>
</glyph>
<glyph name="U.003" format="2">
  <advance width="1137"/>
  <outline>
    <contour>
      <point x="111" y="422" type="curve" smooth="yes"/>
      <point x="111" y="622"/>
      <point x="344" y="867"/>
      <point x="534" y="867" type="curve" smooth="yes"/>
      <point x="674" y="867"/>
      <point x="737" y="727"/>
      <point x="669" y="597" type="curve" smooth="yes"/>
      <point x="422" y="128" type="line" smooth="yes"/>
      <point x="397" y="81"/>
      <point x="382" y="15"/>
      <point x="416" y="15" type="curve" smooth="yes"/>
      <point x="506" y="15"/>
      <point x="724" y="374"/>
      <point x="906" y="750" type="curve"/>
      <point x="1006" y="750" type="line"/>
      <point x="638" y="81" type="line" smooth="yes"/>
      <point x="614" y="38"/>
      <point x="630" y="17"/>
      <point x="668" y="17" type="curve" smooth="yes"/>
      <point x="735.031" y="17"/>
      <point x="831" y="128" type="qcurve"/>
      <point x="841" y="118" type="line"/>
      <point x="751" y="-10"/>
      <point x="653" y="-10" type="qcurve" smooth="yes"/>
      <point x="599" y="-10"/>
      <point x="553" y="13"/>
      <point x="583" y="122" type="curve"/>
      <point x="518" y="38"/>
      <point x="468" y="-10"/>
      <point x="416" y="-10" type="curve" smooth="yes"/>
      <point x="371" y="-10"/>
      <point x="351" y="27"/>
      <point x="351" y="88" type="curve" smooth="yes"/>
      <point x="351" y="152"/>
      <point x="369" y="221"/>
      <point x="410" y="295" type="curve" smooth="yes"/>
      <point x="604" y="648" type="line" smooth="yes"/>
      <point x="658" y="746"/>
      <point x="633" y="844"/>
      <point x="530" y="844" type="curve" smooth="yes"/>
      <point x="377" y="844"/>
      <point x="136" y="574"/>
      <point x="136" y="421" type="curve" smooth="yes"/>
      <point x="136" y="365"/>
      <point x="167" y="342"/>
      <point x="207" y="342" type="curve" smooth="yes"/>
      <point x="338" y="342"/>
      <point x="476" y="604"/>
      <point x="455" y="752" type="curve"/>
      <point x="476" y="758" type="line"/>
      <point x="529" y="602"/>
      <point x="380" y="319"/>
      <point x="210" y="319" type="curve" smooth="yes"/>
      <point x="144" y="319"/>
      <point x="111" y="352"/>
    </contour>
  </outline>
</glyph>
<glyph name="V.002" format="2">
  <advance width="600"/>
  <outline>
    <contour>
      <point x="9" y="508" type="curve"/>
      <point x="60" y="489" type="line"/>
      <point x="82" y="559"/>
      <point x="128" y="665"/>
      <point x="178" y="665" type="curve" smooth="yes"/>
      <point x="206" y="665"/>
      <point x="219" y="645"/>
      <point x="219" y="618" type="curve" smooth="yes"/>
      <point x="219" y="538"/>
      <point x="86" y="364"/>
      <point x="86" y="199" type="curve" smooth="yes"/>
      <point x="86" y="52"/>
      <point x="221" y="-1"/>
      <point x="321" y="-1" type="curve" smooth="yes"/>
      <point x="574" y="-1"/>
      <point x="732" y="284"/>
      <point x="732" y="500" type="curve" smooth="yes"/>
      <point x="732" y="593"/>
      <point x="712" y="750"/>
      <point x="603" y="750" type="curve"/>
      <point x="559" y="750"/>
      <point x="517" y="712"/>
      <point x="517" y="660" type="curve"/>
      <point x="517" y="571"/>
      <point x="599" y="489"/>
      <point x="599" y="376" type="curve" smooth="yes"/>
      <point x="599" y="259"/>
      <point x="519" y="84"/>
      <point x="391" y="84" type="curve" smooth="yes"/>
      <point x="331" y="84"/>
      <point x="274" y="116"/>
      <point x="274" y="202" type="curve" smooth="yes"/>
      <point x="274" y="334"/>
      <point x="391" y="453"/>
      <point x="391" y="589" type="curve" smooth="yes"/>
      <point x="391" y="671"/>
      <point x="345" y="750"/>
      <point x="244" y="750" type="curve" smooth="yes"/>
      <point x="132" y="750"/>
      <point x="52" y="619"/>
    </contour>
  </outline>
</glyph>
<glyph name="W.001" format="2">
  <advance width="1041"/>
  <outline>
    <contour>
      <point x="881" y="739" type="curve" smooth="yes"/>
      <point x="881" y="718"/>
      <point x="923" y="727"/>
      <point x="937" y="727" type="curve"/>
      <point x="752" y="159" type="line"/>
      <point x="583" y="727" type="line"/>
      <point x="639" y="727" type="line" smooth="yes"/>
      <point x="647" y="727"/>
      <point x="650" y="731"/>
      <point x="650" y="739" type="curve" smooth="yes"/>
      <point x="650" y="747"/>
      <point x="647" y="750"/>
      <point x="639" y="750" type="curve" smooth="yes"/>
      <point x="431" y="750" type="line" smooth="yes"/>
      <point x="423" y="750"/>
      <point x="420" y="747"/>
      <point x="420" y="739" type="curve" smooth="yes"/>
      <point x="420" y="731"/>
      <point x="423" y="727"/>
      <point x="431" y="727" type="curve" smooth="yes"/>
      <point x="482" y="727" type="line"/>
      <point x="503" y="657" type="line"/>
      <point x="341" y="159" type="line"/>
      <point x="172" y="727" type="line"/>
      <point x="219" y="727" type="line" smooth="yes"/>
      <point x="227" y="727"/>
      <point x="230" y="731"/>
      <point x="230" y="739" type="curve" smooth="yes"/>
      <point x="230" y="747"/>
      <point x="227" y="750"/>
      <point x="219" y="750" type="curve" smooth="yes"/>
      <point x="11" y="750" type="line" smooth="yes"/>
      <point x="3" y="750"/>
      <point x="0" y="747"/>
      <point x="0" y="739" type="curve" smooth="yes"/>
      <point x="0" y="731"/>
      <point x="3" y="727"/>
      <point x="11" y="727" type="curve" smooth="yes"/>
      <point x="71" y="727" type="line"/>
      <point x="292" y="0" type="line"/>
      <point x="332" y="0" type="line"/>
      <point x="522" y="595" type="line"/>
      <point x="703" y="0" type="line"/>
      <point x="743" y="0" type="line"/>
      <point x="976" y="727" type="line"/>
      <point x="1029" y="727" type="line" smooth="yes"/>
      <point x="1037" y="727"/>
      <point x="1041" y="731"/>
      <point x="1041" y="739" type="curve" smooth="yes"/>
      <point x="1041" y="747"/>
      <point x="1037" y="750"/>
      <point x="1029" y="750" type="curve" smooth="yes"/>
      <point x="893" y="750" type="line" smooth="yes"/>
      <point x="885" y="750"/>
      <point x="881" y="747"/>
    </contour>
  </outline>
</glyph>
<glyph name="W.002" format="2">
  <advance width="880"/>
  <outline>
    <contour>
      <point x="241" y="736" type="line"/>
      <point x="196" y="699"/>
      <point x="33" y="538"/>
      <point x="33" y="367" type="curve" smooth="yes"/>
      <point x="33" y="152"/>
      <point x="208" y="-17"/>
      <point x="330" y="-17" type="curve" smooth="yes"/>
      <point x="406" y="-17"/>
      <point x="426" y="18"/>
      <point x="446" y="45" type="curve"/>
      <point x="490" y="10"/>
      <point x="535" y="-22"/>
      <point x="601" y="-23" type="curve" smooth="yes"/>
      <point x="651" y="-23"/>
      <point x="678" y="-7"/>
      <point x="725" y="34" type="curve"/>
      <point x="806" y="-13" type="line"/>
      <point x="860" y="50" type="line"/>
      <point x="833" y="53"/>
      <point x="813" y="69"/>
      <point x="800" y="98" type="curve"/>
      <point x="791" y="666" type="line" smooth="yes"/>
      <point x="791" y="715"/>
      <point x="816" y="743"/>
      <point x="825" y="754" type="curve"/>
      <point x="827" y="765"/>
      <point x="826" y="764"/>
      <point x="815" y="764" type="curve" smooth="yes"/>
      <point x="800" y="764"/>
      <point x="796" y="757"/>
      <point x="785" y="752" type="curve"/>
      <point x="76" y="753" type="line" smooth="yes"/>
      <point x="58" y="753"/>
      <point x="40" y="761"/>
      <point x="40" y="768" type="curve" smooth="yes"/>
      <point x="40" y="775"/>
      <point x="34" y="776"/>
      <point x="29" y="776" type="curve" smooth="yes"/>
      <point x="19" y="776"/>
      <point x="21" y="772"/>
      <point x="21" y="765" type="curve"/>
      <point x="21" y="765"/>
      <point x="30" y="735"/>
      <point x="76" y="735" type="curve" smooth="yes"/>
    </contour>
    <contour>
      <point x="421" y="59" type="curve"/>
      <point x="383" y="21"/>
      <point x="365" y="14"/>
      <point x="324" y="14" type="curve" smooth="yes"/>
      <point x="259" y="14"/>
      <point x="139" y="179"/>
      <point x="139" y="358" type="curve" smooth="yes"/>
      <point x="139" y="659"/>
      <point x="290" y="699"/>
      <point x="315" y="728" type="curve"/>
      <point x="470" y="727" type="line"/>
      <point x="379" y="603"/>
      <point x="315" y="463"/>
      <point x="315" y="351" type="curve" smooth="yes"/>
      <point x="315" y="207"/>
      <point x="394" y="115"/>
    </contour>
    <contour>
      <point x="614" y="724" type="curve" smooth="yes"/>
      <point x="657" y="724"/>
      <point x="700" y="704"/>
      <point x="701" y="663" type="curve" smooth="yes"/>
      <point x="712" y="75" type="line"/>
      <point x="696" y="40"/>
      <point x="657" y="8"/>
      <point x="605" y="8" type="curve" smooth="yes"/>
      <point x="541" y="8"/>
      <point x="441" y="110"/>
      <point x="441" y="366" type="curve" smooth="yes"/>
      <point x="441" y="631"/>
      <point x="516" y="724"/>
    </contour>
  </outline>
</glyph>
<glyph name="X.001" format="2">
  <advance width="790"/>
  <outline>
    <contour>
      <point x="20" y="750" type="line"/>
      <point x="20" y="600" type="line"/>
      <point x="170" y="600" type="line"/>
      <point x="170" y="750" type="line"/>
    </contour>
    <contour>
      <point x="619" y="750" type="line"/>
      <point x="619" y="600" type="line"/>
      <point x="770" y="600" type="line"/>
      <point x="770" y="750" type="line"/>
    </contour>
    <contour>
      <point x="170" y="600" type="line"/>
      <point x="170" y="450" type="line"/>
      <point x="319" y="450" type="line"/>
      <point x="319" y="600" type="line"/>
    </contour>
    <contour>
      <point x="470" y="600" type="line"/>
      <point x="470" y="450" type="line"/>
      <point x="619" y="450" type="line"/>
      <point x="619" y="600" type="line"/>
    </contour>
    <contour>
      <point x="470" y="300" type="line"/>
      <point x="470" y="450" type="line"/>
      <point x="319" y="450" type="line"/>
      <point x="319" y="300" type="line"/>
    </contour>
    <contour>
      <point x="170" y="300" type="line"/>
      <point x="170" y="150" type="line"/>
      <point x="319" y="150" type="line"/>
      <point x="319" y="300" type="line"/>
    </contour>
    <contour>
      <point x="619" y="150" type="line"/>
      <point x="619" y="300" type="line"/>
      <point x="470" y="300" type="line"/>
      <point x="470" y="150" type="line"/>
    </contour>
    <contour>
      <point x="20" y="150" type="line"/>
      <point x="20" y="0" type="line"/>
      <point x="170" y="0" type="line"/>
      <point x="170" y="150" type="line"/>
    </contour>
    <contour>
      <point x="619" y="0" type="line"/>
      <point x="770" y="0" type="line"/>
      <point x="770" y="150" type="line"/>
      <point x="619" y="150" type="line"/>
    </contour>
  </outline>
</glyph>
<glyph name="Y.002" format="2">
  <advance width="586"/>
  <outline>
    <contour>
      <point x="122" y="748" type="line"/>
      <point x="26" y="346" type="line" smooth="yes"/>
      <point x="23" y="331"/>
      <point x="20" y="317"/>
      <point x="20" y="302" type="curve" smooth="yes"/>
      <point x="20" y="246"/>
      <point x="51" y="210"/>
      <point x="108" y="210" type="curve" smooth="yes"/>
      <point x="245" y="210"/>
      <point x="451" y="514"/>
      <point x="505" y="629" type="curve"/>
      <point x="420" y="271" type="line" smooth="yes"/>
      <point x="394" y="161"/>
      <point x="316" y="12"/>
      <point x="186" y="12" type="curve" smooth="yes"/>
      <point x="142" y="12"/>
      <point x="93" y="20"/>
      <point x="52" y="36" type="curve"/>
      <point x="36" y="8" type="line"/>
      <point x="82" y="-11"/>
      <point x="137" y="-18"/>
      <point x="186" y="-18" type="curve" smooth="yes"/>
      <point x="331" y="-18"/>
      <point x="426" y="121"/>
      <point x="455" y="249" type="curve" smooth="yes"/>
      <point x="566" y="748" type="line"/>
      <point x="526" y="750" type="line"/>
      <point x="472" y="626"/>
      <point x="235" y="231"/>
      <point x="90" y="231" type="curve" smooth="yes"/>
      <point x="64" y="231"/>
      <point x="61" y="264"/>
      <point x="61" y="282" type="curve" smooth="yes"/>
      <point x="61" y="309"/>
      <point x="67" y="337"/>
      <point x="73" y="363" type="curve" smooth="yes"/>
      <point x="166" y="744" type="line"/>
    </contour>
  </outline>
</glyph>
<glyph name="Z.001" format="2">
  <advance width="396"/>
  <outline>
    <contour>
      <point x="236" y="474" type="line"/>
      <point x="251" y="503"/>
      <point x="375" y="722"/>
      <point x="375" y="737" type="curve" smooth="yes"/>
      <point x="375" y="746"/>
      <point x="367" y="750"/>
      <point x="359" y="750" type="curve" smooth="yes"/>
      <point x="31" y="750" type="line" smooth="yes"/>
      <point x="25" y="750"/>
      <point x="21" y="745"/>
      <point x="21" y="739" type="curve" smooth="yes"/>
      <point x="21" y="733"/>
      <point x="25" y="729"/>
      <point x="31" y="729" type="curve" smooth="yes"/>
      <point x="349" y="729" type="line"/>
      <point x="212" y="474" type="line"/>
      <point x="31" y="474" type="line" smooth="yes"/>
      <point x="25" y="474"/>
      <point x="21" y="469"/>
      <point x="21" y="463" type="curve" smooth="yes"/>
      <point x="21" y="457"/>
      <point x="25" y="452"/>
      <point x="31" y="452" type="curve" smooth="yes"/>
      <point x="201" y="452" type="line"/>
      <point x="196" y="443"/>
      <point x="176" y="409"/>
      <point x="174" y="401" type="curve"/>
      <point x="31" y="401" type="line" smooth="yes"/>
      <point x="25" y="401"/>
      <point x="21" y="396"/>
      <point x="21" y="390" type="curve" smooth="yes"/>
      <point x="21" y="384"/>
      <point x="25" y="380"/>
      <point x="31" y="380" type="curve" smooth="yes"/>
      <point x="348" y="380" type="line"/>
      <point x="330" y="346"/>
      <point x="152" y="24"/>
      <point x="154" y="12" type="curve"/>
      <point x="31" y="12" type="line" smooth="yes"/>
      <point x="25" y="12"/>
      <point x="21" y="8"/>
      <point x="21" y="2" type="curve" smooth="yes"/>
      <point x="21" y="-4"/>
      <point x="25" y="-9"/>
      <point x="31" y="-9" type="curve" smooth="yes"/>
      <point x="356" y="-9" type="line" smooth="yes"/>
      <point x="362" y="-9"/>
      <point x="367" y="-4"/>
      <point x="367" y="2" type="curve" smooth="yes"/>
      <point x="367" y="8"/>
      <point x="362" y="12"/>
      <point x="356" y="12" type="curve" smooth="yes"/>
      <point x="175" y="12" type="line"/>
      <point x="195" y="48"/>
      <point x="374" y="372"/>
      <point x="374" y="388" type="curve" smooth="yes"/>
      <point x="374" y="397"/>
      <point x="366" y="401"/>
      <point x="358" y="401" type="curve" smooth="yes"/>
      <point x="197" y="401" type="line"/>
      <point x="225" y="452" type="line"/>
      <point x="356" y="452" type="line" smooth="yes"/>
      <point x="362" y="452"/>
      <point x="367" y="457"/>
      <point x="367" y="463" type="curve" smooth="yes"/>
      <point x="367" y="469"/>
      <point x="362" y="474"/>
      <point x="356" y="474" type="curve" smooth="yes"/>
    </contour>
  </outline>
</glyph>
<glyph name="Z.002" format="2">
  <advance width="600"/>
  <outline>
    <contour>
      <point x="105" y="733" type="curve"/>
      <point x="91" y="733" type="line"/>
      <point x="91" y="681"/>
      <point x="122" y="630"/>
      <point x="222" y="630" type="curve"/>
      <point x="390" y="630" type="line"/>
      <point x="410" y="629"/>
      <point x="419" y="621"/>
      <point x="419" y="603" type="curve"/>
      <point x="419" y="444" type="line"/>
      <point x="257" y="349" type="line"/>
      <point x="264" y="337" type="line"/>
      <point x="297" y="356"/>
      <point x="301" y="366"/>
      <point x="364" y="366" type="curve" smooth="yes"/>
      <point x="427" y="366"/>
      <point x="482" y="304"/>
      <point x="482" y="213" type="curve" smooth="yes"/>
      <point x="482" y="122"/>
      <point x="424" y="50"/>
      <point x="372" y="35" type="curve" smooth="yes"/>
      <point x="365" y="33"/>
      <point x="355" y="32"/>
      <point x="354" y="36" type="curve" smooth="yes"/>
      <point x="346" y="64"/>
      <point x="266" y="146"/>
      <point x="176" y="146" type="curve" smooth="yes"/>
      <point x="86" y="146"/>
      <point x="53" y="86"/>
      <point x="53" y="47" type="curve" smooth="yes"/>
      <point x="53" y="8"/>
      <point x="82" y="-17"/>
      <point x="121" y="-17" type="curve" smooth="yes"/>
      <point x="159" y="-17"/>
      <point x="171" y="11"/>
      <point x="171" y="26" type="curve" smooth="yes"/>
      <point x="171" y="45"/>
      <point x="156" y="64"/>
      <point x="133" y="64" type="curve" smooth="yes"/>
      <point x="110" y="64"/>
      <point x="98" y="51"/>
      <point x="95" y="37" type="curve" smooth="yes"/>
      <point x="92" y="24"/>
      <point x="96" y="7"/>
      <point x="108" y="3" type="curve"/>
      <point x="91" y="3"/>
      <point x="65" y="7"/>
      <point x="65" y="50" type="curve" smooth="yes"/>
      <point x="65" y="75"/>
      <point x="94" y="123"/>
      <point x="146" y="123" type="curve" smooth="yes"/>
      <point x="198" y="123"/>
      <point x="276" y="65"/>
      <point x="298" y="-17" type="curve"/>
      <point x="401" y="33" type="line" smooth="yes"/>
      <point x="469" y="66"/>
      <point x="549" y="146"/>
      <point x="549" y="213" type="curve" smooth="yes"/>
      <point x="549" y="292"/>
      <point x="502" y="385"/>
      <point x="348" y="385" type="curve"/>
      <point x="485" y="465" type="line"/>
      <point x="485" y="591" type="line"/>
      <point x="485" y="628"/>
      <point x="458" y="699"/>
      <point x="373" y="699" type="curve" smooth="yes"/>
      <point x="170" y="698" type="line"/>
      <point x="147" y="698"/>
      <point x="113" y="696"/>
    </contour>
    <contour>
      <point x="282" y="634" type="line"/>
      <point x="282" y="362" type="line"/>
      <point x="296" y="362" type="line"/>
      <point x="296" y="634" type="line"/>
    </contour>
    <contour>
      <point x="337" y="512" type="line"/>
      <point x="289" y="560" type="line"/>
      <point x="239" y="512" type="line"/>
      <point x="289" y="464" type="line"/>
    </contour>
    <contour>
      <point x="449" y="329" type="line"/>
      <point x="100" y="126" type="line"/>
      <point x="107" y="114" type="line"/>
      <point x="456" y="317" type="line"/>
    </contour>
    <contour>
      <point x="514" y="230" type="line"/>
      <point x="278" y="94" type="line"/>
      <point x="285" y="82" type="line"/>
      <point x="521" y="218" type="line"/>
    </contour>
    <contour>
      <point x="342" y="255" type="line"/>
      <point x="342" y="121" type="line"/>
      <point x="378" y="142" type="line"/>
      <point x="378" y="276" type="line"/>
    </contour>
  </outline>
</glyph>
<glyph name="Z.003" format="2">
  <advance width="743"/>
  <outline>
    <contour>
      <point x="104" y="703" type="curve" smooth="yes"/>
      <point x="125" y="703"/>
      <point x="142" y="722"/>
      <point x="142" y="743" type="curve" smooth="yes"/>
      <point x="142" y="769"/>
      <point x="118" y="782"/>
      <point x="95" y="782" type="curve" smooth="yes"/>
      <point x="67" y="782"/>
      <point x="54" y="758"/>
      <point x="54" y="732" type="curve" smooth="yes"/>
      <point x="54" y="688"/>
      <point x="97" y="660"/>
      <point x="133" y="644" type="curve"/>
      <point x="111" y="624"/>
      <point x="99" y="609"/>
      <point x="99" y="578" type="curve" smooth="yes"/>
      <point x="99" y="499"/>
      <point x="176" y="479"/>
      <point x="241" y="479" type="curve" smooth="yes"/>
      <point x="366" y="479"/>
      <point x="545" y="621"/>
      <point x="641" y="694" type="curve"/>
      <point x="440" y="477" type="line" smooth="yes"/>
      <point x="397" y="431"/>
      <point x="357" y="392"/>
      <point x="289" y="400" type="curve"/>
      <point x="296" y="388"/>
      <point x="308" y="368"/>
      <point x="308" y="354" type="curve" smooth="yes"/>
      <point x="308" y="338"/>
      <point x="296" y="321"/>
      <point x="286" y="310" type="curve" smooth="yes"/>
      <point x="0" y="1" type="line"/>
      <point x="27" y="1" type="line"/>
      <point x="107" y="73"/>
      <point x="249" y="92"/>
      <point x="352" y="92" type="curve" smooth="yes"/>
      <point x="429" y="92"/>
      <point x="664" y="67"/>
      <point x="700" y="-16" type="curve"/>
      <point x="698" y="-13" type="line"/>
      <point x="691" y="-6"/>
      <point x="680" y="-2"/>
      <point x="670" y="-2" type="curve" smooth="yes"/>
      <point x="647" y="-2"/>
      <point x="627" y="-21"/>
      <point x="627" y="-44" type="curve" smooth="yes"/>
      <point x="627" y="-67"/>
      <point x="647" y="-86"/>
      <point x="670" y="-86" type="curve" smooth="yes"/>
      <point x="697" y="-86"/>
      <point x="723" y="-54"/>
      <point x="723" y="-28" type="curve" smooth="yes"/>
      <point x="723" y="24"/>
      <point x="635" y="60"/>
      <point x="593" y="74" type="curve"/>
      <point x="621" y="95"/>
      <point x="644" y="114"/>
      <point x="644" y="152" type="curve" smooth="yes"/>
      <point x="644" y="230"/>
      <point x="570" y="251"/>
      <point x="506" y="251" type="curve" smooth="yes"/>
      <point x="382" y="251"/>
      <point x="248" y="182"/>
      <point x="151" y="109" type="curve" smooth="yes"/>
      <point x="132" y="95"/>
      <point x="114" y="78"/>
      <point x="95" y="65" type="curve" smooth="yes"/>
      <point x="90" y="62"/>
      <point x="83" y="60"/>
      <point x="78" y="57" type="curve"/>
      <point x="309" y="307" type="line" smooth="yes"/>
      <point x="348" y="349"/>
      <point x="390" y="357"/>
      <point x="445" y="354" type="curve"/>
      <point x="436" y="367"/>
      <point x="429" y="382"/>
      <point x="429" y="398" type="curve" smooth="yes"/>
      <point x="429" y="421"/>
      <point x="451" y="460"/>
      <point x="466" y="477" type="curve" smooth="yes"/>
      <point x="719" y="750" type="line"/>
      <point x="692" y="750" type="line"/>
      <point x="586" y="666"/>
      <point x="435" y="636"/>
      <point x="302" y="636" type="curve" smooth="yes"/>
      <point x="241" y="636"/>
      <point x="102" y="647"/>
      <point x="76" y="715" type="curve"/>
      <point x="83" y="708"/>
      <point x="94" y="703"/>
    </contour>
  </outline>
</glyph>
<glyph name="eight.001" format="2">
  <advance width="296"/>
  <outline>
    <contour>
      <point x="73" y="538" type="curve"/>
      <point x="36" y="563"/>
      <point x="20" y="599"/>
      <point x="20" y="643" type="curve" smooth="yes"/>
      <point x="20" y="713"/>
      <point x="81" y="765"/>
      <point x="149" y="765" type="curve" smooth="yes"/>
      <point x="216" y="765"/>
      <point x="276" y="712"/>
      <point x="276" y="643" type="curve" smooth="yes"/>
      <point x="276" y="599"/>
      <point x="260" y="563"/>
      <point x="223" y="538" type="curve"/>
      <point x="265" y="471"/>
      <point x="276" y="367"/>
      <point x="276" y="290" type="curve" smooth="yes"/>
      <point x="276" y="215"/>
      <point x="258" y="-15"/>
      <point x="148" y="-15" type="curve" smooth="yes"/>
      <point x="38" y="-15"/>
      <point x="20" y="215"/>
      <point x="20" y="290" type="curve" smooth="yes"/>
      <point x="20" y="368"/>
      <point x="31" y="471"/>
    </contour>
    <contour>
      <point x="93" y="633" type="curve" smooth="yes"/>
      <point x="93" y="603"/>
      <point x="122" y="584"/>
      <point x="149" y="584" type="curve" smooth="yes"/>
      <point x="176" y="584"/>
      <point x="203" y="605"/>
      <point x="203" y="633" type="curve" smooth="yes"/>
      <point x="203" y="665"/>
      <point x="182" y="691"/>
      <point x="149" y="691" type="curve" smooth="yes"/>
      <point x="115" y="691"/>
      <point x="93" y="667"/>
    </contour>
    <contour>
      <point x="148" y="59" type="curve"/>
      <point x="191" y="87"/>
      <point x="203" y="246"/>
      <point x="203" y="290" type="curve" smooth="yes"/>
      <point x="203" y="329"/>
      <point x="191" y="501"/>
      <point x="147" y="521" type="curve"/>
      <point x="105" y="488"/>
      <point x="93" y="336"/>
      <point x="93" y="290" type="curve" smooth="yes"/>
      <point x="93" y="247"/>
      <point x="105" y="86"/>
    </contour>
  </outline>
</glyph>
<glyph name="eight.002" format="2">
  <advance width="488"/>
  <outline>
    <contour>
      <point x="27" y="693" type="line"/>
      <point x="111" y="702"/>
      <point x="190" y="733"/>
      <point x="256" y="786" type="curve"/>
      <point x="309" y="725"/>
      <point x="390" y="706"/>
      <point x="468" y="706" type="curve"/>
      <point x="442" y="655" type="line"/>
      <point x="442" y="424" type="line"/>
      <point x="334" y="413" type="line"/>
      <point x="374" y="403"/>
      <point x="417" y="386"/>
      <point x="439" y="349" type="curve"/>
      <point x="439" y="109" type="line"/>
      <point x="348" y="85"/>
      <point x="279" y="27"/>
      <point x="220" y="-44" type="curve"/>
      <point x="169" y="32"/>
      <point x="107" y="80"/>
      <point x="20" y="109" type="curve"/>
      <point x="20" y="381" type="line"/>
      <point x="140" y="406" type="line"/>
      <point x="107" y="423"/>
      <point x="68" y="425"/>
      <point x="31" y="426" type="curve"/>
    </contour>
    <contour>
      <point x="175" y="686" type="line"/>
      <point x="175" y="494" type="line"/>
      <point x="220" y="446" type="line"/>
      <point x="285" y="456" type="line"/>
      <point x="285" y="617" type="line"/>
    </contour>
    <contour>
      <point x="285" y="111" type="line"/>
      <point x="285" y="333" type="line"/>
      <point x="240" y="381" type="line"/>
      <point x="175" y="371" type="line"/>
      <point x="175" y="180" type="line"/>
    </contour>
  </outline>
</glyph>
<glyph name="five.001" format="2">
  <advance width="600"/>
  <outline>
    <contour>
      <point x="52" y="700" type="line"/>
      <point x="535" y="700" type="line"/>
      <point x="535" y="554" type="line"/>
      <point x="213" y="554" type="line"/>
      <point x="213" y="472" type="line"/>
      <point x="254" y="484"/>
      <point x="289" y="484"/>
      <point x="335" y="484" type="curve" smooth="yes"/>
      <point x="392" y="484"/>
      <point x="573" y="453"/>
      <point x="573" y="258" type="curve" smooth="yes"/>
      <point x="573" y="63"/>
      <point x="406" y="-14"/>
      <point x="259" y="-14" type="curve" smooth="yes"/>
      <point x="126" y="-14"/>
      <point x="73" y="17"/>
      <point x="52" y="33" type="curve"/>
      <point x="52" y="176" type="line"/>
      <point x="83" y="158"/>
      <point x="106" y="142"/>
      <point x="176" y="142" type="curve" smooth="yes"/>
      <point x="258" y="142"/>
      <point x="285" y="197"/>
      <point x="286" y="230" type="curve" smooth="yes"/>
      <point x="287" y="263"/>
      <point x="249" y="318"/>
      <point x="176" y="318" type="curve" smooth="yes"/>
      <point x="103" y="318"/>
      <point x="83" y="300"/>
      <point x="52" y="281" type="curve"/>
    </contour>
  </outline>
</glyph>
<glyph name="five.003" format="2">
  <advance width="600"/>
  <outline>
    <contour>
      <point x="205" y="700" type="line"/>
      <point x="205" y="325" type="line"/>
      <point x="301" y="325" type="line"/>
      <point x="301" y="700" type="line"/>
    </contour>
    <contour>
      <point x="207" y="192" type="line"/>
      <point x="207" y="0" type="line"/>
      <point x="288" y="0" type="line"/>
      <point x="288" y="192" type="line"/>
    </contour>
    <contour>
      <point x="305" y="331" type="line"/>
      <point x="395" y="331"/>
      <point x="468" y="257"/>
      <point x="468" y="168" type="curve" smooth="yes"/>
      <point x="468" y="78"/>
      <point x="395" y="5"/>
      <point x="305" y="5" type="curve"/>
    </contour>
    <contour>
      <point x="321" y="707" type="line"/>
      <point x="321" y="478" type="line"/>
      <point x="409" y="484" type="line"/>
      <point x="397" y="706" type="line"/>
    </contour>
  </outline>
</glyph>
<glyph name="four.002" format="2">
  <advance width="569"/>
  <outline>
    <contour>
      <point x="29" y="750" type="line"/>
      <point x="22" y="704"/>
      <point x="20" y="656"/>
      <point x="20" y="609" type="curve" smooth="yes"/>
      <point x="20" y="437"/>
      <point x="84" y="269"/>
      <point x="284" y="276" type="curve"/>
      <point x="284" y="174" type="line" smooth="yes"/>
      <point x="284" y="84"/>
      <point x="292" y="-11"/>
      <point x="404" y="-11" type="curve" smooth="yes"/>
      <point x="474" y="-11"/>
      <point x="526" y="47"/>
      <point x="526" y="116" type="curve" smooth="yes"/>
      <point x="526" y="150"/>
      <point x="509" y="175"/>
      <point x="473" y="175" type="curve" smooth="yes"/>
      <point x="436" y="175"/>
      <point x="419" y="151"/>
      <point x="419" y="116" type="curve" smooth="yes"/>
      <point x="419" y="92"/>
      <point x="433" y="69"/>
      <point x="457" y="63" type="curve"/>
      <point x="449" y="42"/>
      <point x="429" y="33"/>
      <point x="407" y="33" type="curve" smooth="yes"/>
      <point x="332" y="33"/>
      <point x="339" y="149"/>
      <point x="339" y="200" type="curve" smooth="yes"/>
      <point x="339" y="282" type="line"/>
      <point x="515" y="316"/>
      <point x="549" y="482"/>
      <point x="549" y="636" type="curve" smooth="yes"/>
      <point x="549" y="697"/>
      <point x="530" y="767"/>
      <point x="456" y="767" type="curve" smooth="yes"/>
      <point x="292" y="767"/>
      <point x="284" y="427"/>
      <point x="284" y="323" type="curve"/>
      <point x="120" y="327"/>
      <point x="78" y="458"/>
      <point x="78" y="600" type="curve" smooth="yes"/>
      <point x="78" y="650"/>
      <point x="81" y="700"/>
      <point x="86" y="750" type="curve"/>
    </contour>
    <contour>
      <point x="339" y="329" type="curve"/>
      <point x="339" y="352" type="line" smooth="yes"/>
      <point x="339" y="413"/>
      <point x="362" y="711"/>
      <point x="453" y="711" type="curve" smooth="yes"/>
      <point x="490" y="711"/>
      <point x="493" y="669"/>
      <point x="493" y="642" type="curve" smooth="yes"/>
      <point x="493" y="530"/>
      <point x="468" y="363"/>
    </contour>
  </outline>
</glyph>
<glyph name="nine.001" format="2">
  <advance width="509"/>
  <outline>
    <contour>
      <point x="404" y="49" type="line" smooth="yes"/>
      <point x="404" y="-17"/>
      <point x="499" y="-17"/>
      <point x="499" y="49" type="curve" smooth="yes"/>
      <point x="499" y="665" type="line" smooth="yes"/>
      <point x="499" y="708"/>
      <point x="461" y="720"/>
      <point x="428" y="699" type="curve"/>
      <point x="392" y="730"/>
      <point x="332" y="750"/>
      <point x="247" y="750" type="curve" smooth="yes"/>
      <point x="124" y="750"/>
      <point x="10" y="659"/>
      <point x="10" y="516" type="curve" smooth="yes"/>
      <point x="10" y="363"/>
      <point x="115" y="275"/>
      <point x="247" y="275" type="curve" smooth="yes"/>
      <point x="312" y="275"/>
      <point x="378" y="303"/>
      <point x="404" y="347" type="curve"/>
    </contour>
    <contour>
      <point x="247" y="377" type="curve" smooth="yes"/>
      <point x="169" y="377"/>
      <point x="117" y="426"/>
      <point x="117" y="516" type="curve" smooth="yes"/>
      <point x="117" y="606"/>
      <point x="169" y="639"/>
      <point x="247" y="639" type="curve" smooth="yes"/>
      <point x="325" y="639"/>
      <point x="386" y="606"/>
      <point x="386" y="516" type="curve" smooth="yes"/>
      <point x="386" y="426"/>
      <point x="325" y="377"/>
    </contour>
  </outline>
</glyph>
<glyph name="one.001" format="2">
  <advance width="305"/>
  <guideline x="-113" y="46" angle="18.4349" identifier="cAPmXf1nol"/>
  <guideline x="166" y="491" angle="195.124" identifier="5Sk83ufMfc"/>
  <outline>
    <contour>
      <point x="-20" y="185" type="line"/>
      <point x="-20" y="0" type="line"/>
      <point x="363" y="0" type="line"/>
      <point x="363" y="185" type="line"/>
    </contour>
    <contour>
      <point x="35" y="689" type="line"/>
      <point x="35" y="78" type="line"/>
      <point x="308" y="78" type="line"/>
      <point x="308" y="762" type="line"/>
    </contour>
    <contour>
      <point x="-58" y="663" type="line"/>
      <point x="-58" y="520" type="line"/>
      <point x="82" y="520" type="line"/>
      <point x="82" y="700" type="line"/>
    </contour>
  </outline>
</glyph>
<glyph name="seven.001" format="2">
  <advance width="658"/>
  <outline>
    <contour>
      <point x="20" y="750" type="line"/>
      <point x="20" y="463" type="line"/>
      <point x="209" y="463" type="line"/>
      <point x="209" y="580" type="line"/>
      <point x="397" y="580" type="line"/>
      <point x="256" y="419"/>
      <point x="174" y="212"/>
      <point x="142" y="1" type="curve"/>
      <point x="352" y="1" type="line"/>
      <point x="385" y="233"/>
      <point x="471" y="444"/>
      <point x="638" y="612" type="curve"/>
      <point x="638" y="750" type="line"/>
    </contour>
  </outline>
  <guideline angle="225" x="-289" y="466"/>
  <guideline angle="90" x="535" y="0"/>
</glyph>
<glyph name="seven.002" format="2">
  <advance width="400"/>
  <guideline x="-360" y="466" angle="225" identifier="kjWHVOn0Mb"/>
  <outline>
    <contour>
      <point x="200" y="6" type="curve"/>
      <point x="118" y="8"/>
      <point x="-23" y="2"/>
      <point x="-62" y="-4" type="curve"/>
      <point x="-8" y="162"/>
      <point x="269" y="491"/>
      <point x="348" y="571" type="curve"/>
      <point x="40" y="571" type="line" smooth="yes"/>
      <point x="-11" y="571"/>
      <point x="-39" y="542"/>
      <point x="-39" y="491" type="curve" smooth="yes"/>
      <point x="-84" y="491" type="line"/>
      <point x="-81" y="762" type="line"/>
      <point x="103" y="753"/>
      <point x="200" y="750"/>
      <point x="475" y="750" type="curve"/>
      <point x="484" y="659" type="line"/>
      <point x="350" y="524"/>
      <point x="243" y="253"/>
    </contour>
  </outline>
</glyph>
<glyph name="six.002" format="2">
  <advance width="572"/>
  <outline>
    <contour>
      <point x="512" y="700" type="curve"/>
      <point x="448" y="701"/>
      <point x="384" y="723"/>
      <point x="320" y="766" type="curve"/>
      <point x="251" y="715"/>
      <point x="176" y="693"/>
      <point x="95" y="700" type="curve"/>
      <point x="122" y="450"/>
      <point x="117" y="233"/>
      <point x="80" y="50" type="curve"/>
      <point x="153" y="43"/>
      <point x="216" y="19"/>
      <point x="269" y="-22" type="curve"/>
      <point x="335" y="29"/>
      <point x="416" y="53"/>
      <point x="512" y="50" type="curve"/>
      <point x="490" y="196"/>
      <point x="490" y="322"/>
      <point x="512" y="429" type="curve"/>
      <point x="460" y="446"/>
      <point x="416" y="474"/>
      <point x="379" y="512" type="curve"/>
      <point x="251" y="430" type="line"/>
      <point x="251" y="642" type="line"/>
      <point x="279" y="626"/>
      <point x="310" y="612"/>
      <point x="346" y="612" type="curve" smooth="yes"/>
      <point x="431" y="613"/>
      <point x="487" y="643"/>
    </contour>
    <contour>
      <point x="251" y="329" type="line"/>
      <point x="362" y="400" type="line"/>
      <point x="362" y="127" type="line"/>
      <point x="337" y="121"/>
      <point x="317" y="106"/>
      <point x="302" y="82" type="curve"/>
      <point x="251" y="122" type="line"/>
    </contour>
  </outline>
</glyph>
<glyph name="two.001" format="2">
  <advance width="856"/>
  <outline>
    <contour>
      <point x="536" y="12" type="curve" smooth="yes"/>
      <point x="512" y="12"/>
      <point x="476" y="25"/>
      <point x="454" y="34" type="curve" smooth="yes"/>
      <point x="365" y="68"/>
      <point x="236" y="134"/>
      <point x="142" y="134" type="curve" smooth="yes"/>
      <point x="101" y="134"/>
      <point x="42" y="111"/>
      <point x="42" y="63" type="curve" smooth="yes"/>
      <point x="42" y="1"/>
      <point x="114" y="-17"/>
      <point x="191" y="-17" type="curve" smooth="yes"/>
      <point x="409" y="-17"/>
      <point x="818" y="375"/>
      <point x="818" y="576" type="curve" smooth="yes"/>
      <point x="818" y="708"/>
      <point x="670" y="766"/>
      <point x="556" y="766" type="curve" smooth="yes"/>
      <point x="482" y="766"/>
      <point x="409" y="747"/>
      <point x="343" y="715" type="curve" smooth="yes"/>
      <point x="250" y="671"/>
      <point x="135" y="578"/>
      <point x="135" y="467" type="curve" smooth="yes"/>
      <point x="135" y="356"/>
      <point x="233" y="306"/>
      <point x="334" y="306" type="curve" smooth="yes"/>
      <point x="418" y="306"/>
      <point x="459" y="324"/>
      <point x="505" y="349" type="curve"/>
      <point x="459" y="367" type="line"/>
      <point x="404" y="343"/>
      <point x="360" y="330"/>
      <point x="322" y="330" type="curve" smooth="yes"/>
      <point x="238" y="330"/>
      <point x="191" y="385"/>
      <point x="191" y="453" type="curve" smooth="yes"/>
      <point x="191" y="575"/>
      <point x="332" y="674"/>
      <point x="437" y="713" type="curve" smooth="yes"/>
      <point x="487" y="731"/>
      <point x="539" y="742"/>
      <point x="592" y="742" type="curve" smooth="yes"/>
      <point x="615" y="742"/>
      <point x="639" y="740"/>
      <point x="661" y="732" type="curve" smooth="yes"/>
      <point x="722" y="710"/>
      <point x="762" y="653"/>
      <point x="762" y="590" type="curve" smooth="yes"/>
      <point x="762" y="393"/>
      <point x="354" y="7"/>
      <point x="155" y="7" type="curve" smooth="yes"/>
      <point x="126" y="7"/>
      <point x="98" y="18"/>
      <point x="98" y="49" type="curve" smooth="yes"/>
      <point x="98" y="87"/>
      <point x="143" y="110"/>
      <point x="178" y="110" type="curve" smooth="yes"/>
      <point x="206" y="110"/>
      <point x="241" y="99"/>
      <point x="268" y="89" type="curve" smooth="yes"/>
      <point x="352" y="59"/>
      <point x="485" y="-12"/>
      <point x="572" y="-12" type="curve" smooth="yes"/>
      <point x="607" y="-12"/>
      <point x="632" y="-1"/>
      <point x="646" y="12" type="curve"/>
      <point x="600" y="30" type="line"/>
      <point x="587" y="20"/>
      <point x="561" y="12"/>
    </contour>
  </outline>
</glyph>
<glyph name="two.002" format="2">
  <advance width="1527"/>
  <outline>
    <contour>
      <point x="641" y="557" type="curve" smooth="yes"/>
      <point x="641" y="666"/>
      <point x="501" y="679"/>
      <point x="420" y="674" type="curve"/>
      <point x="482" y="683"/>
      <point x="545" y="688"/>
      <point x="607" y="688" type="curve" smooth="yes"/>
      <point x="706" y="688"/>
      <point x="893" y="674"/>
      <point x="893" y="538" type="curve" smooth="yes"/>
      <point x="893" y="323"/>
      <point x="20" y="453"/>
      <point x="20" y="130" type="curve" smooth="yes"/>
      <point x="20" y="37"/>
      <point x="105" y="-15"/>
      <point x="190" y="-15" type="curve" smooth="yes"/>
      <point x="235" y="-15"/>
      <point x="299" y="3"/>
      <point x="299" y="59" type="curve" smooth="yes"/>
      <point x="299" y="74"/>
      <point x="294" y="89"/>
      <point x="288" y="102" type="curve"/>
      <point x="298" y="103"/>
      <point x="309" y="104"/>
      <point x="319" y="104" type="curve" smooth="yes"/>
      <point x="407" y="104"/>
      <point x="499" y="85"/>
      <point x="586" y="70" type="curve" smooth="yes"/>
      <point x="774" y="37"/>
      <point x="998" y="-15"/>
      <point x="1187" y="-15" type="curve" smooth="yes"/>
      <point x="1319" y="-15"/>
      <point x="1507" y="15"/>
      <point x="1507" y="184" type="curve" smooth="yes"/>
      <point x="1507" y="249"/>
      <point x="1483" y="309"/>
      <point x="1428" y="346" type="curve"/>
      <point x="1350" y="249"/>
      <point x="1187" y="250"/>
      <point x="1074" y="250" type="curve" smooth="yes"/>
      <point x="975" y="250"/>
      <point x="877" y="253"/>
      <point x="778" y="253" type="curve" smooth="yes"/>
      <point x="587" y="253"/>
      <point x="344" y="245"/>
      <point x="175" y="149" type="curve"/>
      <point x="175" y="280"/>
      <point x="419" y="301"/>
      <point x="508" y="308" type="curve" smooth="yes"/>
      <point x="636" y="318"/>
      <point x="764" y="326"/>
      <point x="892" y="336" type="curve" smooth="yes"/>
      <point x="976" y="343"/>
      <point x="1061" y="350"/>
      <point x="1145" y="361" type="curve" smooth="yes"/>
      <point x="1261" y="377"/>
      <point x="1472" y="403"/>
      <point x="1472" y="560" type="curve" smooth="yes"/>
      <point x="1472" y="719"/>
      <point x="1181" y="744"/>
      <point x="1073" y="754" type="curve" smooth="yes"/>
      <point x="972" y="763"/>
      <point x="871" y="766"/>
      <point x="769" y="766" type="curve" smooth="yes"/>
      <point x="652" y="766"/>
      <point x="83" y="758"/>
      <point x="83" y="570" type="curve" smooth="yes"/>
      <point x="83" y="448"/>
      <point x="271" y="431"/>
      <point x="359" y="431" type="curve" smooth="yes"/>
      <point x="445" y="431"/>
      <point x="641" y="432"/>
    </contour>
  </outline>
</glyph>
<glyph name="zero.002" format="2">
  <advance width="572"/>
  <outline>
    <contour>
      <point x="278" y="765" type="line"/>
      <point x="20" y="357" type="line"/>
      <point x="236" y="69" type="line"/>
      <point x="222" y="44" type="line"/>
      <point x="286" y="-7" type="line"/>
      <point x="309" y="0" type="line"/>
      <point x="328" y="-10" type="line"/>
      <point x="357" y="34" type="line"/>
      <point x="377" y="44" type="line"/>
      <point x="373" y="74" type="line"/>
      <point x="537" y="340" type="line"/>
      <point x="522" y="378" type="line"/>
      <point x="552" y="403" type="line"/>
      <point x="328" y="765" type="line"/>
      <point x="305" y="750" type="line"/>
    </contour>
    <contour>
      <point x="296" y="175" type="line"/>
      <point x="162" y="358" type="line"/>
      <point x="309" y="593" type="line"/>
      <point x="427" y="396" type="line"/>
    </contour>
    <contour>
      <point x="216" y="391" type="line"/>
      <point x="288" y="302" type="line"/>
      <point x="382" y="378" type="line"/>
      <point x="304" y="458" type="line"/>
    </contour>
  </outline>
</glyph>
<glyph name="zero.003" format="2">
  <advance width="529"/>
  <outline>
    <contour>
      <point x="20" y="376" type="curve" smooth="yes"/>
      <point x="20" y="237"/>
      <point x="90" y="-6"/>
      <point x="265" y="-6" type="curve" smooth="yes"/>
      <point x="440" y="-6"/>
      <point x="509" y="238"/>
      <point x="509" y="376" type="curve" smooth="yes"/>
      <point x="509" y="514"/>
      <point x="439" y="756"/>
      <point x="265" y="756" type="curve" smooth="yes"/>
      <point x="90" y="756"/>
      <point x="20" y="515"/>
    </contour>
    <contour>
      <point x="385" y="491" type="curve" smooth="yes"/>
      <point x="385" y="259" type="line" smooth="yes"/>
      <point x="385" y="188"/>
      <point x="365" y="25"/>
      <point x="265" y="25" type="curve" smooth="yes"/>
      <point x="165" y="25"/>
      <point x="144" y="188"/>
      <point x="144" y="259" type="curve" smooth="yes"/>
      <point x="144" y="491" type="line" smooth="yes"/>
      <point x="144" y="562"/>
      <point x="164" y="725"/>
      <point x="264" y="725" type="curve" smooth="yes"/>
      <point x="365" y="725"/>
      <point x="385" y="563"/>
    </contour>
  </outline>
</glyph>
